<?xml version="1.0" encoding="UTF-8" standalone="no"?>
<!-- Svg Vector Icons : http://www.onlinewebfonts.com/icon -->

<svg
   version="1.1"
   x="0px"
   y="0px"
   viewBox="0 0 1000 1000"
   enable-background="new 0 0 1000 1000"
   xml:space="preserve"
   id="svg52"
   sodipodi:docname="be.svg"
   inkscape:version="1.2.2 (b0a8486541, 2022-12-01)"
   xmlns:inkscape="http://www.inkscape.org/namespaces/inkscape"
   xmlns:sodipodi="http://sodipodi.sourceforge.net/DTD/sodipodi-0.dtd"
   xmlns="http://www.w3.org/2000/svg"
   xmlns:svg="http://www.w3.org/2000/svg"><defs
   id="defs56" /><sodipodi:namedview
   id="namedview54"
   pagecolor="#ffffff"
   bordercolor="#000000"
   borderopacity="0.25"
   inkscape:showpageshadow="2"
   inkscape:pageopacity="0.0"
   inkscape:pagecheckerboard="0"
   inkscape:deskcolor="#d1d1d1"
   showgrid="false"
   inkscape:zoom="0.34182947"
   inkscape:cx="1407.1344"
   inkscape:cy="-46.806965"
   inkscape:window-width="2560"
   inkscape:window-height="1367"
   inkscape:window-x="0"
   inkscape:window-y="0"
   inkscape:window-maximized="1"
   inkscape:current-layer="svg52" />
<metadata
   id="metadata2"> Svg Vector Icons : http://www.onlinewebfonts.com/icon </metadata>
<g
   id="g50"><g
     id="g18"><g
       id="g16"><path
         d="M500,10C229.4,10,10,229.4,10,500c0,270.6,219.4,490,490,490c270.6,0,490-219.4,490-490C990,229.4,770.6,10,500,10z M500,913.4C271.7,913.4,86.6,728.3,86.6,500S271.7,86.6,500,86.6S913.4,271.7,913.4,500S728.3,913.4,500,913.4z"
         id="path4" /><g
         id="g14"><g
           id="g10"><path
             d="M474.2,378.8c9,12.6,13.6,27.8,13.6,45.5c0,18.2-4.6,32.9-13.7,44c-5.1,6.2-12.6,11.9-22.5,17c15,5.6,26.4,14.3,34.1,26.3c7.7,12.1,11.5,26.6,11.5,43.8c0,17.7-4.4,33.6-13.2,47.6c-5.6,9.4-12.5,17.2-20.9,23.6c-9.4,7.3-20.6,12.2-33.3,15c-12.8,2.6-26.7,4-41.7,4H255V346.9h142.7C433.7,347.4,459.3,358,474.2,378.8z M313.9,398.8v65.8h71.8c12.8,0,23.2-2.5,31.3-7.4c7.9-5,12-13.7,12-26.3c0-14-5.3-23.1-15.9-27.6c-9.1-3.1-20.8-4.6-34.9-4.6H313.9z M313.9,514.2v79.6h71.7c12.8,0,22.8-1.8,29.9-5.3c13-6.5,19.4-19,19.4-37.3c0-15.6-6.3-26.2-18.8-32c-7-3.2-16.8-4.9-29.5-5H313.9z"
             id="path6" /><path
             d="M687.9,429.1c15.3,6.9,27.8,17.8,37.8,32.7c8.9,13.2,14.7,28.4,17.4,45.7c1.5,10.1,2.1,24.7,1.9,43.8h-159c0.9,22.3,8.6,37.7,22.9,46.7c8.7,5.5,19.2,8.3,31.4,8.3c13,0,23.6-3.4,31.7-10.1c4.5-3.6,8.4-8.6,11.8-15.2H742c-1.5,13-8.6,26.4-21.2,40c-19.6,21.4-47,32.2-82.2,32.2c-29,0-54.6-9.1-76.9-27.2c-22.2-18.2-33.3-47.6-33.3-88.5c0-38.2,10-67.6,30.1-88c20-20.4,46-30.7,78-30.7C655.6,418.8,672.7,422.3,687.9,429.1z M602.5,479.1c-8.1,8.5-13.1,19.8-15.2,34.3h98.3c-1-15.4-6.1-27.1-15.3-35c-9.1-7.9-20.3-11.9-33.8-11.9C622,466.5,610.6,470.7,602.5,479.1z"
             id="path8" /></g><rect
           x="561.3"
           y="377.5"
           width="153.1"
           height="30.6"
           id="rect12" /></g></g></g><g
     id="g20" /><g
     id="g22" /><g
     id="g24" /><g
     id="g26" /><g
     id="g28" /><g
     id="g30" /><g
     id="g32" /><g
     id="g34" /><g
     id="g36" /><g
     id="g38" /><g
     id="g40" /><g
     id="g42" /><g
     id="g44" /><g
     id="g46" /><g
     id="g48" /></g>
<path
   style="fill:#ffffff;stroke-width:0.97371"
   d="M 472.48585,988.74917 C 351.86561,981.89093 238.10964,930.64248 152.87244,844.75947 80.821762,772.16289 33.709507,680.21099 17.14109,579.84421 12.110787,549.37204 11.267289,538.0201 11.244503,500.48685 11.222867,464.84837 11.737546,456.58066 15.669288,429.40794 43.959182,233.89318 189.02552,73.309672 380.72055,25.308592 479.35658,0.60979669 583.7387,7.1211282 677.21519,43.803855 793.57391,89.466198 886.27892,175.13216 940.65891,287.2444 c 24.85055,51.23305 39.4091,102.27713 46.37868,162.60954 2.45462,21.24838 2.45102,77.5137 -0.01,99.80526 -6.80469,61.72634 -22.51561,115.52572 -49.47703,169.42551 -33.786,67.54993 -83.5907,127.10223 -144.46416,172.74224 -91.937,68.92998 -206.07077,103.4343 -320.60081,96.92222 z m 72.38538,-77.27076 c 51.34959,-6.0093 93.94249,-18.44801 138.21187,-40.36303 41.96646,-20.77497 75.35351,-44.74399 108.61274,-77.97455 19.45594,-19.43917 29.25922,-30.7447 42.83482,-49.39879 44.75244,-61.49388 70.93005,-131.64747 77.8715,-208.68849 0.60316,-6.69425 1.09665,-22.46835 1.09665,-35.05355 0,-42.1681 -4.89507,-77.1761 -16.27006,-116.35833 C 865.39238,273.97825 788.15803,181.42134 685.62397,130.05651 646.25555,110.33475 606.4956,97.591172 564.2466,91.153498 c -24.86464,-3.78874 -34.63353,-4.457103 -64.73345,-4.428892 -31.755,0.02976 -45.1918,1.114048 -72.24864,5.830131 C 327.71127,109.90714 236.12704,165.17576 173.2234,245.86173 94.281647,347.11966 67.084558,480.6 99.853895,605.95127 137.62571,750.43831 253.2215,864.75517 398.4895,901.28281 c 18.08821,4.54829 44.06503,9.02438 61.10154,10.52847 6.69426,0.591 13.92405,1.24312 16.06621,1.44914 8.93494,0.8593 57.28002,-0.38542 69.21398,-1.78201 z"
   id="path300" /><path
   style="fill:#ffffff;stroke-width:0.97371"
   d="M 255.11198,496.16258 V 347.12756 h 72.92506 c 43.51855,0 76.9049,0.4084 82.79461,1.0128 14.04992,1.4418 27.35446,5.05351 38.04609,10.32818 7.6865,3.7921 10.65012,5.97337 17.55441,12.92032 14.2754,14.36357 19.41004,27.03772 20.17618,49.80208 0.41249,12.25616 0.19715,15.2949 -1.58703,22.39532 -3.12848,12.45026 -7.14394,19.80107 -15.12558,27.6893 -3.79318,3.74878 -9.64698,8.40714 -13.00844,10.3519 l -6.11174,3.53592 8.05916,4.01269 c 13.8584,6.90013 23.45531,16.44239 29.98204,29.81127 5.92026,12.12664 7.22802,18.86667 7.17929,37.00098 -0.0378,14.04765 -0.29837,16.42067 -2.65063,24.13663 -8.69037,28.50638 -27.8604,49.19278 -53.97672,58.24634 -3.06953,1.06408 -10.40081,2.86038 -16.29176,3.99178 -10.23132,1.96499 -14.23065,2.07448 -89.33787,2.4458 l -78.62707,0.38872 z m 152.15442,95.92238 c 12.10545,-3.11516 21.50396,-11.54148 25.59965,-22.95156 0.86505,-2.40993 1.81495,-8.81585 2.11089,-14.23539 0.45261,-8.28838 0.21084,-10.93107 -1.52192,-16.63579 -3.43248,-11.30071 -11.36746,-18.37639 -25.05664,-22.34317 -4.9799,-1.44306 -11.86505,-1.72345 -50.31659,-2.04907 l -44.54722,-0.37723 v 40.54939 40.5494 l 43.57351,-0.40604 c 37.32626,-0.34782 44.5176,-0.64899 50.15832,-2.10054 z m -5.96217,-128.5426 c 20.48123,-4.34114 29.22178,-15.52713 27.84364,-35.63377 -0.89069,-12.99487 -5.77369,-20.65535 -15.86046,-24.88198 -8.65491,-3.62665 -17.46829,-4.36615 -59.10046,-4.95891 l -40.65238,-0.57881 v 33.72878 33.72878 l 40.65238,-0.017 c 31.18004,-0.013 42.15876,-0.33619 47.11728,-1.38718 z"
   id="path302" /><path
   style="fill:#ffffff;stroke-width:0.97371"
   d="m 622.81867,651.76764 c -30.51138,-3.91826 -60.93649,-21.12838 -75.64647,-42.78978 -15.86809,-23.36681 -22.07101,-62.27045 -15.97849,-100.21447 8.04644,-50.11305 41.43894,-82.65617 91.00687,-88.692 24.24428,-2.9522 55.48001,2.90881 73.53146,13.7973 22.86,13.78898 39.6531,38.76657 45.77112,68.07873 1.48035,7.09247 3.30796,30.26777 3.35945,42.5998 l 0.0254,6.08569 h -79.8527 -79.85271 l 0.58168,5.59883 c 2.74488,26.4203 16.57155,43.62939 39.35743,48.98548 7.01829,1.64972 22.45843,1.65345 29.2113,0.007 11.50401,-2.80475 22.99122,-11.06034 27.79077,-19.97256 l 1.86338,-3.45984 h 28.63042 28.6304 l -0.52457,3.16455 c -3.49597,21.08965 -29.65072,49.606 -54.16789,59.05889 -19.60005,7.55703 -43.04933,10.40927 -63.73685,7.75257 z m 62.49931,-144.22139 c -2.28446,-16.84869 -10.47832,-28.8728 -24.49822,-35.95003 -19.76328,-9.97647 -46.57567,-6.22243 -59.76256,8.36745 -5.02251,5.55687 -10.18756,15.69628 -12.41884,24.37917 -2.66855,10.3845 -8.32968,9.2891 48.00671,9.2891 h 49.49805 z"
   id="path304" /><path
   style="fill:#ffffff;stroke-width:0.97371"
   d="m 561.83057,392.89192 v -14.60565 h 75.94937 75.94937 v 14.60565 14.60565 h -75.94937 -75.94937 z"
   id="path306" /></svg>
