<?xml version="1.0" encoding="UTF-8" standalone="no"?>
<svg
   width="607"
   height="345"
   viewBox="0 0 607 345"
   version="1.1"
   id="svg13"
   sodipodi:docname="clientes-box.svg"
   inkscape:version="1.2.2 (b0a8486541, 2022-12-01)"
   xmlns:inkscape="http://www.inkscape.org/namespaces/inkscape"
   xmlns:sodipodi="http://sodipodi.sourceforge.net/DTD/sodipodi-0.dtd"
   xmlns="http://www.w3.org/2000/svg"
   xmlns:svg="http://www.w3.org/2000/svg">
  <sodipodi:namedview
     id="namedview15"
     pagecolor="#ffffff"
     bordercolor="#000000"
     borderopacity="0.25"
     inkscape:showpageshadow="2"
     inkscape:pageopacity="0.0"
     inkscape:pagecheckerboard="0"
     inkscape:deskcolor="#d1d1d1"
     showgrid="false"
     inkscape:zoom="1.3583333"
     inkscape:cx="561.71779"
     inkscape:cy="339.3865"
     inkscape:window-width="2560"
     inkscape:window-height="1367"
     inkscape:window-x="0"
     inkscape:window-y="0"
     inkscape:window-maximized="1"
     inkscape:current-layer="svg13" />
  <defs
     id="defs5">
    <clipPath
       id="clip-Web_1920_1">
      <rect
         width="1920"
         height="1080"
         id="rect2"
         x="0"
         y="0" />
    </clipPath>
  </defs>
  <g
     id="Web_1920_1"
     data-name="Web 1920 – 1"
     clip-path="url(#clip-Web_1920_1)"
     transform="matrix(0.62227751,0,0,0.60900336,-293.85148,-156.31952)">
    <g
       id="Trazado_1"
       data-name="Trazado 1"
       transform="translate(477,263)"
       fill="none"
       stroke-dasharray="20, 20">
      <path
         d="M 110,0 H 856 A 110,110 0 0 1 966,110 V 445 A 110,110 0 0 1 856,555 H 110 A 110,110 0 0 1 0,445 V 110 A 110,110 0 0 1 110,0 Z"
         stroke="none"
         id="path7" />
      <path
         d="m 110,0 h 20 V 13 H 110 V 0 c 0,0 0,0 0,0 z m 40,0 h 20 v 13 h -20 z m 40,0 h 20 v 13 h -20 z m 40,0 h 20 v 13 h -20 z m 40,0 h 20 v 13 h -20 z m 40,0 h 20 v 13 h -20 z m 40,0 h 20 v 13 h -20 z m 40,0 h 20 v 13 h -20 z m 40,0 h 20 v 13 h -20 z m 40,0 h 20 v 13 h -20 z m 40,0 h 20 v 13 h -20 z m 40,0 h 20 v 13 h -20 z m 40,0 h 20 v 13 h -20 z m 40,0 h 20 v 13 h -20 z m 40,0 h 20 v 13 h -20 z m 40,0 h 20 v 13 h -20 z m 40,0 h 20 v 13 h -20 z m 40,0 h 20 v 13 h -20 z m 40,0 h 20 v 13 h -20 z m 39.96423,0.87799072 c 5.39801,0.68389888 10.67377,1.75891118 15.79853,3.19586178 0,0 1.8e-4,6.11e-5 1.8e-4,6.11e-5 0.0233,0.00653 0.0465,0.013062 0.0698,0.019592 0.003,9.765e-4 0.005,0.00128 0.008,0.0022 0.0206,0.0058 0.0419,0.011841 0.0625,0.017639 0.007,0.00189 0.0101,0.00287 0.017,0.00476 0.0198,0.00562 0.0402,0.011353 0.0599,0.016907 0.003,9.765e-4 0.0118,0.00336 0.0153,0.00433 0.0206,0.0058 0.0405,0.011475 0.061,0.017273 0.007,0.00195 0.007,0.00195 0.0137,0.00391 0.0213,0.00604 0.0427,0.012085 0.0641,0.018188 0.003,9.156e-4 0.004,0.00122 0.008,0.0022 0.0221,0.00629 0.044,0.012512 0.0661,0.018799 0.007,0.00195 0.008,0.00238 0.0151,0.00433 0.085,0.024231 0.16943,0.048401 0.25433,0.072876 0.0102,0.00293 0.0264,0.00757 0.0366,0.010498 0.0124,0.0036 0.0252,0.00726 0.0377,0.010864 0.0136,0.00391 0.0256,0.00739 0.0391,0.011291 0.0132,0.00378 0.0263,0.00763 0.0394,0.011414 0.0136,0.00391 0.0261,0.00757 0.0397,0.011475 0.0124,0.0036 0.0248,0.0072 0.0372,0.010803 0.0136,0.00391 0.028,0.00812 0.0415,0.012024 0.0117,0.00342 0.0228,0.00665 0.0344,0.01001 0.0136,0.00397 0.0345,0.010071 0.048,0.013977 0.01,0.00287 0.0188,0.00549 0.0285,0.00836 0.017,0.00494 0.035,0.010193 0.0519,0.015137 0.009,0.0025 0.0167,0.00488 0.0252,0.00739 0.0203,0.00592 0.0419,0.012207 0.0622,0.018188 0.005,0.00134 0.01,0.00287 0.0145,0.00421 0.0271,0.00793 0.0472,0.013855 0.0742,0.021851 0.001,3.052e-4 0.003,7.325e-4 0.004,0.0011 0.10834,0.03186 0.21552,0.063538 0.32373,0.095764 7.9e-4,1.831e-4 10e-4,3.052e-4 0.002,4.883e-4 0.027,0.00806 0.0511,0.015259 0.0781,0.023315 0.002,4.273e-4 0.003,9.156e-4 0.005,0.0014 0.027,0.00806 0.0491,0.014648 0.0761,0.022705 0.002,4.883e-4 0.003,9.766e-4 0.005,0.0014 0.63189,0.189087 1.25964,0.3831177 1.88672,0.583191 L 885.51611,17.568787 C 879.93878,15.78949 874.15668,14.513062 868.33026,13.774963 Z M 907.86029,12.967712 c 5.90173,3.16095 11.48157,6.844544 16.67773,10.988953 l -8.10614,10.163208 c -4.59429,-3.664551 -9.54321,-6.925476 -14.70935,-9.692261 z m 31.10437,24.802002 c 3.00403,3.447571 5.79694,7.084504 8.35803,10.889893 0,0 0.001,0.0019 0.001,0.0019 0.14434,0.214538 0.28772,0.429199 0.43066,0.644805 0.002,0.0029 10e-4,0.0022 0.003,0.0051 0.0121,0.01834 0.0242,0.03647 0.0363,0.05481 0.002,0.0029 0.006,0.0098 0.008,0.01266 0.0106,0.01596 0.0212,0.03201 0.0317,0.04797 0.004,0.0058 0.009,0.01422 0.0132,0.01999 0.01,0.01495 0.0202,0.03058 0.0301,0.04553 0.004,0.0058 0.0104,0.01575 0.0142,0.02152 0.01,0.01462 0.0192,0.02908 0.0289,0.04373 0.006,0.0086 0.01,0.01465 0.0153,0.02329 0.009,0.01428 0.0186,0.02829 0.028,0.04257 0.006,0.0087 0.012,0.01822 0.0176,0.02685 0.008,0.0119 0.0156,0.02362 0.0234,0.03552 0.008,0.01154 0.015,0.02286 0.0226,0.03442 0.007,0.01089 0.0149,0.02267 0.022,0.03357 0.008,0.01154 0.0145,0.02219 0.0221,0.03372 0.007,0.01126 0.0142,0.02164 0.0215,0.0329 0.008,0.01154 0.0146,0.02225 0.0222,0.03381 0.007,0.01123 0.0151,0.02316 0.0225,0.03442 0.009,0.01443 0.0145,0.02219 0.0239,0.03662 0.006,0.0092 0.0122,0.01874 0.0183,0.02795 0.009,0.01443 0.0195,0.02994 0.0289,0.04437 0.005,0.0078 0.0101,0.0155 0.0153,0.02335 0.009,0.01447 0.0227,0.03494 0.0322,0.04941 0.004,0.0058 0.008,0.0116 0.0113,0.01739 0.0113,0.01736 0.0216,0.03323 0.0329,0.0506 0.004,0.0061 0.008,0.01227 0.012,0.0184 0.0602,0.09262 0.11774,0.181488 0.17762,0.274261 0.002,0.0024 0.003,0.0049 0.005,0.0073 0.0131,0.02032 0.0276,0.04279 0.0407,0.06311 4.2e-4,6.71e-4 10e-4,0.002 0.002,0.0026 0.0149,0.02322 0.027,0.04193 0.0419,0.06515 0.002,0.0027 0.004,0.0062 0.006,0.009 0.0131,0.02032 0.0254,0.0394 0.0384,0.05975 0.002,0.0034 0.005,0.0072 0.007,0.01062 0.0112,0.01743 0.0258,0.04013 0.0369,0.05756 0.003,0.0041 0.005,0.0081 0.008,0.01224 0.013,0.02032 0.0253,0.03949 0.0383,0.05984 10e-4,0.002 0.003,0.004 0.004,0.006 0.0149,0.02329 0.0254,0.03964 0.0402,0.0629 10e-4,0.0021 0.003,0.0049 0.004,0.0069 0.0148,0.02329 0.0262,0.04102 0.041,0.06427 8.5e-4,0.0014 0.002,0.0025 0.002,0.0039 0.0149,0.02325 0.0275,0.04312 0.0424,0.06644 6.7e-4,0.001 10e-4,0.0017 0.002,0.0027 0.62305,0.978363 1.22809,1.962188 1.82074,2.961242 l -11.18024,6.633332 c -2.99157,-5.042145 -6.466,-9.845337 -10.32666,-14.276001 z m 20.28998,34.216309 c 2.27838,6.187592 4.01843,12.64209 5.15906,19.295044 l -12.81305,2.196655 c -0.99134,-5.782379 -2.52051,-11.501861 -4.54505,-16.999054 l 12.19904,-4.492676 z M 953,111.19226 h 13 c 0,0 0,20 0,20 h -13 z m 0,40 h 13 c 0,0 0,20 0,20 h -13 z m 0,40 h 13 c 0,0 0,20 0,20 h -13 z m 0,40 h 13 c 0,0 0,20 0,20 h -13 z m 0,40 h 13 c 0,0 0,20 0,20 h -13 z m 0,40 h 13 c 0,0 0,20 0,20 h -13 z m 0,40 h 13 c 0,0 0,20 0,20 h -13 z m 0,40 h 13 c 0,0 0,20 0,20 h -13 z m 0,40 h 13 c 0,0 0,13.80774 0,13.80774 0,0.0308 0,0.0616 -6e-5,0.0924 0,0.0148 0,0.0234 0,0.0382 -6e-5,0.0183 -6e-5,0.0368 -1.2e-4,0.055 0,0.0111 -6e-5,0.0304 -6e-5,0.0415 0,0.0175 -7e-5,0.0347 -1.3e-4,0.0522 0,0.0148 -6e-5,0.0258 -1.2e-4,0.0406 0,0.0178 -6e-5,0.0359 -1.2e-4,0.0538 -6e-5,0.0111 -1.2e-4,0.0298 -1.8e-4,0.0409 -6e-5,0.0172 -1.3e-4,0.0347 -1.9e-4,0.0519 -6e-5,0.0148 -1.2e-4,0.0273 -1.8e-4,0.0421 -6e-5,0.0171 -1.8e-4,0.0342 -2.4e-4,0.0513 -6e-5,0.0148 -1.3e-4,0.0279 -2.5e-4,0.0428 -6e-5,0.0174 -1.8e-4,0.035 -2.4e-4,0.0523 -1.2e-4,0.0148 -1.9e-4,0.0251 -2.5e-4,0.0399 -1.2e-4,0.0178 -2.4e-4,0.0355 -3.6e-4,0.0533 -1.2e-4,0.0148 -1.9e-4,0.0273 -3.1e-4,0.0421 -1.2e-4,0.017 -2.4e-4,0.0341 -3.6e-4,0.0511 -6e-5,0.0111 -1.9e-4,0.0302 -3.1e-4,0.0413 -1.2e-4,0.02 -3e-4,0.0399 -4.9e-4,0.0599 -6e-5,0.0111 -1.8e-4,0.0223 -3e-4,0.0334 -2.5e-4,0.0307 -4.9e-4,0.0615 -8e-4,0.0923 -1.2e-4,0.0111 -1.8e-4,0.0158 -3e-4,0.0269 -1.8e-4,0.0215 -4.3e-4,0.0432 -6.1e-4,0.0647 -1.8e-4,0.0148 -3.1e-4,0.0268 -4.3e-4,0.0416 -2.4e-4,0.0177 -4.3e-4,0.0351 -6.1e-4,0.0528 -1.8e-4,0.0148 -3e-4,0.026 -4.9e-4,0.0408 -1.8e-4,0.0175 -3.6e-4,0.0347 -6.1e-4,0.0522 -1.2e-4,0.0148 -3e-4,0.0262 -4.9e-4,0.041 -1.8e-4,0.0175 -4.2e-4,0.0353 -6.7e-4,0.0529 -1.8e-4,0.0148 -3e-4,0.0274 -5.5e-4,0.0422 -1.8e-4,0.0166 -4.2e-4,0.0331 -6.7e-4,0.0497 -1.8e-4,0.0148 -3.6e-4,0.0294 -6.1e-4,0.0442 -1.8e-4,0.0165 -4.3e-4,0.0329 -6.7e-4,0.0493 -2.4e-4,0.0148 -4.3e-4,0.0295 -6.7e-4,0.0443 -2.5e-4,0.0165 -4.9e-4,0.0329 -7.3e-4,0.0494 -2.5e-4,0.0148 -4.3e-4,0.0278 -6.7e-4,0.0426 -2.5e-4,0.0172 -5.5e-4,0.0345 -8e-4,0.0517 -2.4e-4,0.0148 -4.9e-4,0.0279 -7.3e-4,0.0426 -2.5e-4,0.0159 -5.5e-4,0.0319 -7.9e-4,0.0478 -2.5e-4,0.0148 -4.9e-4,0.0306 -8e-4,0.0454 -3e-4,0.0173 -6.1e-4,0.0345 -9.1e-4,0.0519 -3.7e-4,0.0222 -6.1e-4,0.0362 -10e-4,0.0584 -4.3e-4,0.0243 -9.2e-4,0.0489 -10e-4,0.0732 -3.1e-4,0.0148 -4.9e-4,0.0228 -7.4e-4,0.0376 -3.6e-4,0.018 -7.3e-4,0.036 -10e-4,0.054 -2.5e-4,0.0147 -6.8e-4,0.0341 -9.8e-4,0.0489 -2.5e-4,0.0141 -5.5e-4,0.0281 -8.6e-4,0.0422 -3.6e-4,0.0184 -7.3e-4,0.0343 -10e-4,0.0527 -3.1e-4,0.0134 -5.5e-4,0.0265 -8.6e-4,0.0399 -3.7e-4,0.0185 -6.7e-4,0.0328 -0.001,0.0512 -3e-4,0.0137 -6.1e-4,0.0274 -9.1e-4,0.0412 -4.3e-4,0.0184 -8e-4,0.0347 -10e-4,0.0532 -2.5e-4,0.0126 -5.5e-4,0.0251 -8.6e-4,0.0378 -4.3e-4,0.0184 -7.9e-4,0.0357 -10e-4,0.0541 -2.4e-4,0.0125 -5.5e-4,0.0247 -8.5e-4,0.0372 -4.3e-4,0.0184 -9.2e-4,0.038 -10e-4,0.0565 -3e-4,0.0114 -6.1e-4,0.0226 -8.5e-4,0.0339 -4.9e-4,0.0184 -9.8e-4,0.0389 -10e-4,0.0573 -2.4e-4,0.0108 -5.5e-4,0.0217 -7.9e-4,0.0325 -5.5e-4,0.0221 -10e-4,0.0397 -0.002,0.0618 -1.2e-4,0.004 -2.4e-4,0.009 -3.6e-4,0.0132 -0.004,0.14001 -0.008,0.28384 -0.0119,0.4237 -1.2e-4,0.003 -1.8e-4,0.006 -3e-4,0.009 -8.5e-4,0.0294 -0.002,0.0511 -0.002,0.0806 -6e-5,0.003 -1.8e-4,0.005 -2.5e-4,0.008 -7.9e-4,0.0258 -0.002,0.0534 -0.003,0.0792 -1.2e-4,0.004 -1.8e-4,0.008 -3e-4,0.0114 -9.8e-4,0.0294 -0.002,0.0516 -0.003,0.081 -6e-5,0.002 -1.2e-4,0.003 -1.8e-4,0.005 -0.0277,0.85349 -0.0652,1.70508 -0.11224,2.55356 l -12.98005,-0.72 C 952.94922,448.65973 953,446.83588 953,445 Z m -2.71442,36.70215 12.63575,3.05585 c -0.003,0.0138 -0.006,0.0255 -0.01,0.0393 -0.002,0.007 -0.004,0.0147 -0.005,0.0219 -0.004,0.0172 -0.009,0.0389 -0.0136,0.0562 -0.002,0.008 -0.004,0.0172 -0.006,0.0256 -0.004,0.0172 -0.008,0.0348 -0.0127,0.0521 -0.002,0.01 -0.005,0.0197 -0.007,0.0297 -0.005,0.0207 -0.0105,0.0431 -0.0156,0.0638 -0.001,0.005 -0.002,0.01 -0.004,0.0146 -0.006,0.0241 -0.0122,0.0498 -0.0181,0.0739 -0.003,0.0124 -0.006,0.025 -0.009,0.0373 -0.004,0.0172 -0.008,0.0311 -0.0119,0.0483 -0.003,0.0136 -0.007,0.027 -0.01,0.0406 -0.003,0.0138 -0.006,0.0245 -0.009,0.0382 -0.003,0.0136 -0.007,0.0275 -0.0101,0.041 -0.003,0.0138 -0.006,0.0256 -0.01,0.0394 -0.004,0.0148 -0.007,0.0294 -0.0109,0.0441 -0.003,0.0103 -0.006,0.0224 -0.008,0.0327 -0.004,0.0163 -0.008,0.0319 -0.012,0.0483 -0.003,0.0103 -0.005,0.0205 -0.008,0.0309 -0.004,0.0163 -0.008,0.0337 -0.0125,0.0501 -0.002,0.007 -0.005,0.0198 -0.007,0.0266 -0.004,0.0172 -0.009,0.0347 -0.013,0.0519 -0.002,0.007 -0.005,0.021 -0.007,0.0279 -0.004,0.0175 -0.009,0.0345 -0.0131,0.052 -0.003,0.0103 -0.003,0.0138 -0.006,0.0241 -0.005,0.0183 -0.009,0.0366 -0.0139,0.0549 -0.002,0.007 -0.004,0.0156 -0.006,0.0225 -0.005,0.0191 -0.01,0.0377 -0.0143,0.0568 -9.2e-4,0.003 -0.004,0.0142 -0.005,0.0177 -0.005,0.0203 -0.0103,0.0405 -0.0154,0.0608 -9.1e-4,0.003 -0.002,0.009 -0.003,0.0129 -0.0375,0.14762 -0.0753,0.29486 -0.11347,0.44223 -8.5e-4,0.003 -7.3e-4,0.003 -0.002,0.006 -0.006,0.0218 -0.0113,0.0437 -0.017,0.0656 -0.002,0.007 -0.002,0.007 -0.004,0.0138 -0.005,0.0207 -0.0106,0.0408 -0.016,0.0615 -8.5e-4,0.003 -0.003,0.0133 -0.004,0.0168 -0.005,0.0203 -0.0106,0.0407 -0.0159,0.0609 -0.002,0.007 -0.003,0.0102 -0.004,0.0171 -0.005,0.0199 -0.0104,0.0399 -0.0156,0.0597 -0.002,0.007 -0.003,0.0118 -0.005,0.0186 -0.005,0.0198 -0.0104,0.0396 -0.0156,0.0595 -0.002,0.007 -0.003,0.0103 -0.005,0.0171 -0.005,0.0206 -0.0109,0.0414 -0.0163,0.062 -9.1e-4,0.003 -0.002,0.007 -0.003,0.0106 -0.0523,0.1987 -0.10522,0.39724 -0.15869,0.59549 -9.1e-4,0.003 -10e-4,0.004 -0.002,0.008 -0.006,0.0234 -0.0126,0.0467 -0.0189,0.0701 0,0 -0.002,0.006 -0.002,0.006 -0.006,0.0233 -0.0126,0.0467 -0.0189,0.07 -9.2e-4,0.003 -10e-4,0.004 -0.002,0.007 -0.006,0.0229 -0.0124,0.0461 -0.0187,0.069 0,0 -0.002,0.008 -0.002,0.008 -0.006,0.0225 -0.0121,0.0446 -0.0182,0.0671 -9.1e-4,0.003 -0.002,0.009 -0.003,0.0121 -0.006,0.0221 -0.0121,0.0442 -0.0181,0.0663 -9.2e-4,0.003 -8.6e-4,0.003 -0.002,0.007 -0.0547,0.20035 -0.11029,0.40116 -0.1662,0.60102 0,0 -2.5e-4,10e-4 -2.5e-4,10e-4 -0.007,0.0244 -0.0136,0.0485 -0.0204,0.0729 -9.2e-4,0.003 -6e-5,1.9e-4 -9.8e-4,0.004 -0.006,0.0229 -0.0129,0.046 -0.0193,0.0688 -9.1e-4,0.003 -0.002,0.006 -0.003,0.01 -0.006,0.0217 -0.012,0.0427 -0.0181,0.0643 -9.2e-4,0.003 -0.003,0.0102 -0.004,0.0136 -0.006,0.0217 -0.0122,0.0429 -0.0182,0.0646 -9.8e-4,0.003 -0.002,0.007 -0.003,0.0104 -0.006,0.0224 -0.0127,0.0449 -0.019,0.0674 0,0 -0.002,0.006 -0.002,0.006 -0.007,0.024 -0.0135,0.0475 -0.0203,0.0715 -9.8e-4,0.003 7.3e-4,-0.003 -1.9e-4,6.5e-4 -0.007,0.0248 -0.014,0.049 -0.0211,0.0738 0,0 -0.002,0.006 -0.002,0.006 -0.0422,0.14795 -0.0846,0.29554 -0.12738,0.44321 0,0 -0.002,0.006 -0.002,0.006 -0.006,0.0216 -0.0125,0.043 -0.0187,0.0646 -9.8e-4,0.003 -0.003,0.01 -0.004,0.0129 -0.006,0.0193 -0.0114,0.039 -0.017,0.0583 -0.002,0.007 -0.004,0.0147 -0.006,0.0214 -0.005,0.0188 -0.0109,0.0373 -0.0163,0.0562 -0.002,0.007 -0.004,0.0126 -0.006,0.0194 -0.006,0.0192 -0.0113,0.0386 -0.0169,0.0579 -0.002,0.007 -0.004,0.013 -0.006,0.0198 -0.005,0.0188 -0.0112,0.0383 -0.0167,0.0571 -10e-4,0.003 -0.005,0.0153 -0.005,0.0187 -0.006,0.0196 -0.0115,0.039 -0.0173,0.0586 -0.002,0.007 -0.003,0.0118 -0.005,0.0186 -0.006,0.0192 -0.0116,0.0394 -0.0173,0.0586 -0.001,0.003 -0.003,0.0118 -0.004,0.0151 -0.006,0.0211 -0.0125,0.0422 -0.0187,0.0634 0,0 -0.001,0.005 -0.001,0.005 -0.0357,0.12067 -0.0715,0.24082 -0.1076,0.36133 -10e-4,0.003 -0.003,0.009 -0.004,0.0124 -0.006,0.0188 -0.0113,0.0376 -0.0169,0.0564 -0.003,0.0101 -0.003,0.0113 -0.006,0.0214 -0.005,0.018 -0.0107,0.0356 -0.0161,0.0536 -0.002,0.007 -0.005,0.0176 -0.007,0.0243 -0.005,0.0168 -0.0102,0.0337 -0.0153,0.0505 -0.003,0.0101 -0.005,0.0172 -0.008,0.0274 -0.005,0.0164 -0.0101,0.0331 -0.015,0.0495 -0.003,0.0101 -0.006,0.0186 -0.009,0.0288 -0.005,0.0156 -0.009,0.0313 -0.0142,0.0469 -0.003,0.0101 -0.006,0.0204 -0.009,0.0305 -0.005,0.016 -0.01,0.0328 -0.0148,0.0488 -0.003,0.0101 -0.005,0.0172 -0.008,0.0273 -0.005,0.0168 -0.01,0.0327 -0.0151,0.0495 -0.002,0.007 -0.006,0.0204 -0.008,0.0272 -0.005,0.0168 -0.0103,0.0339 -0.0154,0.0507 -0.003,0.0101 -0.005,0.0172 -0.008,0.0273 -0.005,0.0164 -0.01,0.0322 -0.0149,0.0486 -0.003,0.0101 -0.006,0.0187 -0.009,0.0288 -0.005,0.0164 -0.0104,0.0337 -0.0154,0.0501 -10e-4,0.003 -0.003,0.008 -0.004,0.0116 -0.0191,0.062 -0.0382,0.12378 -0.0574,0.18576 -0.003,0.0101 -0.007,0.021 -0.01,0.0311 -0.005,0.0168 -0.0104,0.0335 -0.0156,0.0502 -0.003,0.0101 -0.005,0.0147 -0.008,0.0248 -0.005,0.0164 -0.01,0.0323 -0.0151,0.0487 -0.003,0.0101 -0.007,0.021 -0.01,0.0311 -0.004,0.0144 -0.009,0.0282 -0.0133,0.0426 -0.003,0.0101 -0.008,0.0256 -0.0111,0.0357 -0.004,0.0128 -0.008,0.0253 -0.012,0.0381 -0.004,0.0134 -0.009,0.0293 -0.0134,0.0428 -0.004,0.0117 -0.007,0.0228 -0.0108,0.0344 -0.004,0.0135 -0.009,0.0286 -0.0132,0.0421 -0.004,0.012 -0.008,0.0243 -0.0115,0.0364 -0.004,0.0134 -0.01,0.031 -0.014,0.0445 -0.003,0.0105 -0.007,0.0207 -0.01,0.0312 -0.005,0.0168 -0.0109,0.0343 -0.0162,0.0511 -0.003,0.008 -0.005,0.0169 -0.008,0.0251 -0.005,0.0168 -0.0126,0.0399 -0.0179,0.0567 -0.002,0.007 -0.005,0.015 -0.007,0.0223 -0.005,0.0168 -0.0114,0.0356 -0.0167,0.0524 -0.003,0.009 -0.006,0.0182 -0.009,0.0272 -0.006,0.0201 -0.0146,0.046 -0.0211,0.0661 -0.001,0.004 -0.002,0.007 -0.003,0.0101 -0.0171,0.0537 -0.0339,0.10626 -0.0511,0.15988 -1.2e-4,4e-4 -6e-5,2.8e-4 -1.8e-4,6.8e-4 -0.009,0.0268 -0.0161,0.0502 -0.0247,0.077 -0.001,0.005 -0.003,0.01 -0.005,0.0147 -0.008,0.0234 -0.0134,0.0415 -0.0209,0.065 -10e-4,0.005 -0.003,0.009 -0.004,0.0135 -0.006,0.0201 -0.0145,0.0448 -0.0209,0.0649 -0.002,0.005 -0.004,0.0117 -0.005,0.0171 -0.007,0.0201 -0.0132,0.041 -0.0198,0.061 -0.002,0.006 -0.004,0.013 -0.006,0.0192 -0.006,0.0201 -0.0123,0.0379 -0.0188,0.058 -0.003,0.008 -0.005,0.0155 -0.008,0.0232 -0.007,0.0201 -0.0119,0.0367 -0.0184,0.0567 -0.002,0.007 -0.004,0.0131 -0.006,0.0197 -0.007,0.0201 -0.0135,0.0414 -0.0201,0.0615 -0.002,0.005 -0.004,0.0111 -0.005,0.0165 -0.007,0.02 -0.0158,0.0484 -0.0223,0.0684 -9.1e-4,0.003 -0.002,0.005 -0.003,0.008 -0.008,0.0234 -0.0162,0.0494 -0.0238,0.0728 -7.9e-4,0.002 -0.001,0.004 -0.002,0.007 -0.0526,0.1604 -0.10474,0.318 -0.15809,0.47806 -3.6e-4,0.001 -7.3e-4,0.002 -10e-4,0.003 -0.009,0.0267 -0.0162,0.0487 -0.0251,0.0754 -7.9e-4,0.002 -10e-4,0.004 -0.002,0.006 -0.009,0.0267 -0.0153,0.0459 -0.0243,0.0726 -7.3e-4,0.002 -0.002,0.005 -0.002,0.007 -0.009,0.0267 -0.0165,0.0491 -0.0254,0.0757 -1.2e-4,4e-4 -6e-5,2.5e-4 -1.8e-4,6.4e-4 -0.009,0.0266 -0.0172,0.051 -0.0261,0.0776 -3.6e-4,10e-4 -7.3e-4,0.002 -0.001,0.003 -0.52917,1.57174 -1.09234,3.12597 -1.68969,4.66504 -1.2e-4,3.9e-4 -1.9e-4,4.8e-4 -3.7e-4,8.8e-4 -0.0101,0.0261 -0.019,0.0489 -0.0291,0.075 -10e-4,0.003 -0.002,0.005 -0.003,0.007 -0.0102,0.0261 -0.0168,0.043 -0.0269,0.0691 -10e-4,0.003 -0.003,0.007 -0.004,0.0101 -0.008,0.0196 -0.0177,0.0454 -0.0253,0.065 -0.002,0.005 -0.004,0.0101 -0.006,0.015 -0.008,0.0195 -0.017,0.0433 -0.0246,0.0628 -0.002,0.004 -0.004,0.009 -0.005,0.0133 -0.008,0.0195 -0.0169,0.0431 -0.0246,0.0626 -0.002,0.005 -0.004,0.0102 -0.006,0.0155 -0.008,0.0195 -0.0181,0.0462 -0.0258,0.0657 -10e-4,0.003 -0.003,0.006 -0.004,0.009 -0.009,0.0228 -0.0165,0.0419 -0.0254,0.0647 -0.002,0.005 -0.004,0.009 -0.006,0.014 -0.0103,0.026 -0.0192,0.0488 -0.0295,0.0748 0,0 0,1.2e-4 0,1.2e-4 -0.0308,0.078 -0.0599,0.15143 -0.0909,0.22937 -0.004,0.009 -0.007,0.0177 -0.0107,0.0267 -0.006,0.0162 -0.013,0.0327 -0.0195,0.0489 -0.004,0.0101 -0.008,0.02 -0.012,0.0301 -0.006,0.0162 -0.0108,0.0271 -0.0173,0.0433 -0.005,0.012 -0.01,0.0241 -0.0145,0.0361 -0.004,0.01 -0.0114,0.0286 -0.0153,0.0384 -0.005,0.0135 -0.0106,0.0263 -0.016,0.0399 -0.004,0.01 -0.009,0.0224 -0.0129,0.0322 -0.006,0.0154 -0.0122,0.0302 -0.0183,0.0456 -0.003,0.006 -0.008,0.0208 -0.011,0.0273 -0.006,0.0158 -0.0128,0.0317 -0.0191,0.0475 -0.004,0.01 -0.007,0.0164 -0.0106,0.0261 -0.006,0.0161 -0.0128,0.0319 -0.0194,0.048 -0.004,0.01 -0.007,0.0163 -0.0105,0.026 -0.007,0.0165 -0.0134,0.0333 -0.0201,0.0498 -0.003,0.006 -0.005,0.0116 -0.007,0.018 -0.008,0.0195 -0.0154,0.0382 -0.0234,0.0577 -0.001,0.003 -0.002,0.004 -0.003,0.008 -0.48529,1.19748 -0.99127,2.38488 -1.51709,3.56091 l -11.86774,-5.30612 c 2.39331,-5.35321 4.30548,-10.9556 5.68292,-16.65146 z m -14.30395,32.00491 10.71063,7.36774 c -1.26227,1.83472 -2.58142,3.63321 -3.94983,5.38522 -2.4e-4,3.1e-4 -1.8e-4,2.5e-4 -4.3e-4,5.5e-4 -0.0508,0.0651 -0.10095,0.12915 -0.15191,0.19409 -2.5e-4,3.1e-4 -8e-4,9.8e-4 -10e-4,0.001 -0.0148,0.019 -0.0316,0.0403 -0.0465,0.0592 -0.002,0.003 -0.004,0.006 -0.007,0.009 -0.0149,0.0189 -0.03,0.0382 -0.0449,0.0571 -0.002,0.002 -0.003,0.004 -0.005,0.007 -0.017,0.0216 -0.0311,0.0394 -0.0481,0.061 -4.9e-4,6.1e-4 -10e-4,0.002 -0.002,0.002 -0.11926,0.1513 -0.23822,0.30139 -0.35833,0.45209 -7.4e-4,9.7e-4 -8e-4,10e-4 -0.002,0.002 -0.0172,0.0215 -0.0316,0.0396 -0.0487,0.0611 -0.002,0.003 -0.005,0.006 -0.007,0.009 -0.015,0.0188 -0.0278,0.0349 -0.0429,0.0537 -0.004,0.005 -0.007,0.009 -0.0112,0.014 -0.0129,0.0161 -0.0256,0.032 -0.0385,0.0481 -0.005,0.006 -0.01,0.0123 -0.0147,0.0184 -0.0107,0.0134 -0.0262,0.0326 -0.0369,0.0461 -0.004,0.005 -0.008,0.0104 -0.0125,0.0155 -0.0129,0.0161 -0.0245,0.0305 -0.0374,0.0466 -0.006,0.007 -0.0109,0.0136 -0.0165,0.0206 -0.0107,0.0134 -0.0215,0.0268 -0.0323,0.0402 -0.007,0.009 -0.0132,0.0165 -0.0201,0.0251 -0.009,0.0107 -0.02,0.0249 -0.0287,0.0356 -0.008,0.01 -0.0157,0.0195 -0.0236,0.0294 -0.009,0.0107 -0.0188,0.0233 -0.0274,0.0341 -0.007,0.009 -0.0146,0.018 -0.0217,0.0268 -0.0108,0.0134 -0.0187,0.0232 -0.0295,0.0366 -0.007,0.009 -0.0149,0.0184 -0.022,0.0272 -0.0108,0.0134 -0.0181,0.0224 -0.0289,0.0358 -0.007,0.009 -0.0138,0.0171 -0.0207,0.0257 -0.0108,0.0134 -0.0189,0.0233 -0.0297,0.0367 -0.007,0.009 -0.0147,0.0182 -0.0222,0.0273 -0.0109,0.0134 -0.0195,0.024 -0.0303,0.0374 -0.006,0.008 -0.0127,0.0157 -0.0192,0.0236 -0.009,0.0107 -0.0212,0.0261 -0.0299,0.0368 -0.007,0.009 -0.0152,0.0188 -0.0226,0.028 -0.007,0.008 -0.0184,0.0226 -0.025,0.0306 -0.008,0.0101 -0.017,0.0209 -0.0252,0.031 -0.007,0.008 -0.0104,0.0128 -0.017,0.0208 -0.0411,0.0505 -0.0817,0.10022 -0.12286,0.15057 -0.002,0.003 -0.008,0.01 -0.0103,0.0126 -0.0114,0.0139 -0.0225,0.0275 -0.0339,0.0414 -0.004,0.005 -0.0129,0.0158 -0.0173,0.0212 -0.0114,0.0139 -0.023,0.028 -0.0343,0.0419 -0.007,0.008 -0.009,0.0109 -0.0154,0.0189 -0.0113,0.0139 -0.0221,0.0269 -0.0334,0.0407 -0.007,0.008 -0.0115,0.014 -0.018,0.022 -0.0111,0.0136 -0.0221,0.0269 -0.0332,0.0404 -0.004,0.005 -0.0124,0.0151 -0.0168,0.0204 -0.0111,0.0136 -0.0223,0.0272 -0.0334,0.0407 -0.007,0.008 -0.0109,0.0132 -0.0174,0.0211 -0.0119,0.0145 -0.0239,0.0291 -0.0358,0.0435 -0.004,0.005 -0.008,0.0102 -0.0127,0.0155 -0.0124,0.015 -0.0247,0.0299 -0.0371,0.0449 -0.004,0.005 -0.0104,0.0126 -0.0148,0.0179 -0.0122,0.0147 -0.024,0.029 -0.0362,0.0437 -0.004,0.005 -0.009,0.011 -0.0134,0.0163 -0.0122,0.0148 -0.0244,0.0294 -0.0366,0.0441 -0.007,0.008 -0.009,0.0104 -0.0152,0.0184 -0.0117,0.0141 -0.024,0.029 -0.0357,0.0431 -0.004,0.005 -0.0102,0.0123 -0.0146,0.0176 -0.012,0.0144 -0.0236,0.0284 -0.0356,0.0428 -0.004,0.005 -0.0119,0.0143 -0.0163,0.0196 -0.0116,0.0141 -0.0237,0.0286 -0.0354,0.0427 -0.002,0.003 -0.01,0.0117 -0.012,0.0143 -0.0132,0.0159 -0.0264,0.0318 -0.0397,0.0477 -0.004,0.005 -0.003,0.003 -0.007,0.009 -0.1474,0.17688 -0.29578,0.35376 -0.44422,0.52972 0,0 -0.002,0.003 -0.002,0.003 -0.0155,0.0184 -0.0312,0.037 -0.0467,0.0553 -0.002,0.003 -0.002,0.003 -0.005,0.005 -0.0155,0.0183 -0.0313,0.037 -0.0468,0.0553 0,0 -0.004,0.004 -0.004,0.004 -0.015,0.0177 -0.0302,0.0356 -0.0452,0.0533 -0.002,0.003 -0.005,0.005 -0.007,0.008 -0.0148,0.0174 -0.03,0.0353 -0.0447,0.0527 0,0 -0.006,0.007 -0.006,0.007 -0.0145,0.0171 -0.0293,0.0345 -0.0438,0.0516 -0.002,0.003 -0.006,0.008 -0.009,0.0102 -0.0148,0.0173 -0.0299,0.0351 -0.0447,0.0524 0,0 -0.003,0.004 -0.003,0.004 -0.016,0.0189 -0.0319,0.0375 -0.048,0.0564 0,0 -0.002,0.002 -0.002,0.002 -0.23541,0.27613 -0.47192,0.55085 -0.70996,0.82459 -0.002,0.003 -10e-4,0.001 -0.003,0.004 -1.63904,1.88471 -3.34143,3.71332 -5.1034,5.48206 l -9.2099,-9.17481 c 4.14685,-4.16268 7.93537,-8.72427 11.26032,-13.55789 z m -24.77496,24.87003 7.40869,10.68225 c -1.42615,0.98913 -2.87671,1.94531 -4.35077,2.86761 -0.003,0.002 -0.003,0.002 -0.006,0.004 -0.0193,0.0121 -0.0386,0.0242 -0.0579,0.0362 -0.003,0.002 -0.007,0.004 -0.01,0.006 -0.0196,0.0123 -0.0389,0.0243 -0.0585,0.0365 -0.003,0.002 -0.005,0.003 -0.008,0.005 -0.0189,0.0118 -0.038,0.0237 -0.0569,0.0355 -0.006,0.004 -0.006,0.004 -0.0119,0.007 -0.0176,0.0109 -0.0358,0.0223 -0.0534,0.0332 -0.006,0.004 -0.0102,0.006 -0.0161,0.01 -0.0162,0.0101 -0.0331,0.0206 -0.0493,0.0306 -0.009,0.005 -0.0108,0.007 -0.0197,0.0122 -0.0165,0.0102 -0.0331,0.0205 -0.0496,0.0308 -0.006,0.004 -0.009,0.006 -0.0153,0.01 -0.0169,0.0104 -0.0341,0.0211 -0.051,0.0316 -0.006,0.004 -0.0129,0.008 -0.0189,0.0117 -0.0162,0.01 -0.0323,0.02 -0.0486,0.03 -0.009,0.005 -0.0105,0.006 -0.0193,0.012 -0.0162,0.01 -0.032,0.0197 -0.0482,0.0297 -0.006,0.004 -0.01,0.006 -0.0158,0.01 -0.0767,0.0474 -0.15362,0.0946 -0.23047,0.14172 -0.009,0.005 -0.0145,0.009 -0.0233,0.0143 -0.0146,0.009 -0.0289,0.0177 -0.0435,0.0266 -0.009,0.005 -0.0152,0.009 -0.024,0.0147 -0.0145,0.009 -0.0289,0.0176 -0.0435,0.0265 -0.009,0.005 -0.0165,0.0101 -0.0253,0.0155 -0.0142,0.009 -0.0289,0.0176 -0.0431,0.0263 -0.009,0.005 -0.0155,0.009 -0.0244,0.0148 -0.0142,0.009 -0.0276,0.0168 -0.0419,0.0255 -0.009,0.005 -0.0193,0.0118 -0.0281,0.0172 -0.0136,0.008 -0.0272,0.0165 -0.0407,0.0248 -0.009,0.005 -0.0171,0.0104 -0.0259,0.0158 -0.0142,0.009 -0.0282,0.0171 -0.0424,0.0258 -0.009,0.005 -0.0192,0.0117 -0.028,0.017 -0.0129,0.008 -0.0257,0.0156 -0.0386,0.0234 -0.0118,0.007 -0.019,0.0115 -0.0308,0.0187 -0.0118,0.007 -0.0239,0.0145 -0.0357,0.0216 -0.0118,0.007 -0.0247,0.0149 -0.0365,0.0221 -0.0107,0.006 -0.0212,0.0128 -0.032,0.0194 -0.0118,0.007 -0.0243,0.0146 -0.0361,0.0218 -0.0108,0.007 -0.0218,0.0132 -0.0326,0.0197 -0.0148,0.009 -0.0242,0.0146 -0.039,0.0235 -0.01,0.006 -0.0197,0.0119 -0.0294,0.0178 -0.0148,0.009 -0.027,0.0162 -0.0419,0.0251 -0.009,0.005 -0.0175,0.0105 -0.0266,0.016 -0.0148,0.009 -0.0319,0.0192 -0.0467,0.0281 -0.007,0.004 -0.0151,0.009 -0.0225,0.0136 -0.0178,0.0106 -0.0289,0.0173 -0.0467,0.028 -0.008,0.005 -0.0156,0.009 -0.0232,0.0139 -0.0712,0.0426 -0.13953,0.0835 -0.21075,0.12598 -3.7e-4,1.8e-4 -10e-4,6.1e-4 -10e-4,7.9e-4 -0.0237,0.0142 -0.0429,0.0256 -0.0666,0.0397 -0.006,0.004 -0.0116,0.007 -0.0179,0.0106 -0.0148,0.009 -0.0375,0.0223 -0.0523,0.0311 -0.006,0.003 -0.012,0.007 -0.0176,0.0104 -0.0178,0.0106 -0.0344,0.0204 -0.0522,0.031 -0.007,0.004 -0.0136,0.008 -0.0206,0.0121 -0.0148,0.009 -0.0334,0.0198 -0.0483,0.0286 -0.008,0.005 -0.016,0.01 -0.024,0.0143 -0.0149,0.009 -0.0297,0.0176 -0.0446,0.0264 -0.009,0.005 -0.0174,0.0103 -0.0261,0.0154 -0.0149,0.009 -0.0317,0.0187 -0.0466,0.0275 -0.007,0.004 -0.0132,0.008 -0.0198,0.0117 -0.0179,0.0106 -0.0341,0.0201 -0.0519,0.0306 -0.006,0.003 -0.0123,0.007 -0.0183,0.0107 -0.0179,0.0105 -0.0338,0.0198 -0.0516,0.0304 -0.006,0.004 -0.0128,0.008 -0.0191,0.0112 -0.0179,0.0106 -0.033,0.0194 -0.0508,0.0299 -0.006,0.004 -0.0132,0.008 -0.0196,0.0115 -0.0179,0.0105 -0.0375,0.022 -0.0555,0.0325 -0.005,0.003 -0.008,0.005 -0.0129,0.008 -0.0209,0.0123 -0.0414,0.0243 -0.0623,0.0365 -0.003,10e-4 -0.005,0.003 -0.008,0.004 -0.0239,0.014 -0.0453,0.0265 -0.0692,0.0405 -3.6e-4,1.8e-4 -6.1e-4,3.6e-4 -9.7e-4,5.5e-4 -0.11945,0.0698 -0.23774,0.13861 -0.35749,0.20794 -0.002,9.8e-4 -0.004,0.002 -0.005,0.003 -0.0239,0.0139 -0.042,0.0243 -0.066,0.0381 -0.002,10e-4 -0.004,0.002 -0.007,0.004 -0.0209,0.0121 -0.0423,0.0245 -0.0633,0.0366 -0.004,0.002 -0.007,0.004 -0.0108,0.006 -0.021,0.0121 -0.04,0.0231 -0.061,0.0352 -0.004,0.002 -0.007,0.004 -0.0101,0.006 -0.018,0.0103 -0.0413,0.0237 -0.0593,0.0341 -0.005,0.003 -0.009,0.005 -0.0138,0.008 -0.018,0.0104 -0.0418,0.024 -0.0598,0.0344 -0.003,0.002 -0.006,0.004 -0.01,0.005 -0.018,0.0104 -0.0436,0.025 -0.0616,0.0353 -0.003,0.002 -0.007,0.004 -0.0101,0.006 -0.0211,0.012 -0.042,0.024 -0.063,0.0361 -0.003,10e-4 -0.005,0.003 -0.008,0.004 -0.024,0.0137 -0.0427,0.0244 -0.0668,0.0381 -10e-4,6.1e-4 -0.003,10e-4 -0.004,0.002 -0.24036,0.13727 -0.47882,0.27222 -0.72034,0.40772 -10e-4,7.9e-4 -0.003,0.002 -0.004,0.002 -0.0242,0.0135 -0.0443,0.0248 -0.0684,0.0383 -10e-4,6.1e-4 -0.002,10e-4 -0.003,0.002 -0.0242,0.0136 -0.0429,0.024 -0.0671,0.0375 -0.002,10e-4 -0.006,0.003 -0.008,0.005 -0.0242,0.0135 -0.0397,0.0221 -0.0638,0.0357 -0.003,0.002 -0.005,0.003 -0.008,0.004 -0.0242,0.0135 -0.041,0.0229 -0.0652,0.0364 -0.002,10e-4 -0.004,0.002 -0.006,0.003 -0.0484,0.0269 -0.0933,0.0519 -0.14178,0.0789 -7.3e-4,3.7e-4 -6.7e-4,3.7e-4 -0.001,7.3e-4 -0.24219,0.13446 -0.48249,0.26667 -0.72583,0.3993 -0.002,9.7e-4 -0.004,0.002 -0.005,0.003 -0.0243,0.0132 -0.0433,0.0236 -0.0676,0.0368 -0.002,9.8e-4 -0.003,0.002 -0.005,0.003 -0.0213,0.0116 -0.0427,0.0232 -0.064,0.0348 -0.004,0.002 -0.009,0.005 -0.0126,0.007 -0.0213,0.0116 -0.0411,0.0223 -0.0624,0.0339 -0.003,0.002 -0.005,0.003 -0.008,0.004 -0.0244,0.0132 -0.0408,0.0221 -0.0652,0.0353 -0.003,0.001 -0.005,0.003 -0.007,0.004 -0.0244,0.0132 -0.0432,0.0234 -0.0676,0.0366 -0.001,8e-4 -0.003,0.002 -0.004,0.002 -0.0244,0.0131 -0.0459,0.0248 -0.0703,0.038 -7.4e-4,3.6e-4 -0.001,6.1e-4 -0.002,9.7e-4 -0.26838,0.14472 -0.53443,0.28681 -0.80408,0.42932 -0.002,9.8e-4 -0.004,0.002 -0.006,0.003 -0.0215,0.0113 -0.0421,0.0222 -0.0635,0.0336 -0.005,0.002 -0.009,0.005 -0.0136,0.007 -0.0214,0.0113 -0.041,0.0216 -0.0624,0.033 -0.002,0.001 -0.005,0.002 -0.007,0.004 -0.0245,0.0129 -0.0427,0.0225 -0.0672,0.0354 -0.002,9.2e-4 -0.004,0.002 -0.006,0.003 -0.0246,0.0129 -0.046,0.0241 -0.0705,0.037 -3.7e-4,1.8e-4 -9.2e-4,4.9e-4 -10e-4,6.7e-4 -0.0246,0.0129 -0.0475,0.0249 -0.0721,0.0378 -7.3e-4,3.7e-4 -9.1e-4,4.9e-4 -0.002,8.6e-4 -0.24572,0.12872 -0.48956,0.25524 -0.73639,0.3822 -0.002,9.1e-4 -0.003,0.002 -0.005,0.003 -0.0247,0.0127 -0.0431,0.0222 -0.0678,0.0348 -0.003,0.001 -0.005,0.002 -0.007,0.004 -0.0216,0.011 -0.0431,0.0221 -0.0648,0.0332 -0.004,0.002 -0.006,0.003 -0.01,0.005 -0.0216,0.011 -0.0449,0.023 -0.0665,0.034 -10e-4,7.4e-4 -0.004,0.002 -0.005,0.003 -0.0247,0.0126 -0.0453,0.0231 -0.07,0.0358 -7.4e-4,3.7e-4 -0.002,0.001 -0.003,0.002 -0.32147,0.16406 -0.64257,0.32593 -0.96582,0.48688 0,0 -3e-4,1.2e-4 -3e-4,1.2e-4 -0.0248,0.0124 -0.0468,0.0233 -0.0717,0.0357 -0.002,8.6e-4 -0.004,0.002 -0.005,0.003 -0.0248,0.0123 -0.0464,0.0231 -0.0713,0.0354 -3.7e-4,1.8e-4 -7.3e-4,3.7e-4 -10e-4,4.9e-4 -0.34839,0.17285 -0.69732,0.34363 -1.04785,0.51282 0,0 -1.8e-4,1.2e-4 -1.8e-4,1.2e-4 -0.0251,0.0121 -0.0476,0.023 -0.0726,0.035 -0.001,7.3e-4 -0.003,10e-4 -0.005,0.002 -0.81085,0.39068 -1.62756,0.77185 -2.44934,1.14313 l -5.35205,-11.84723 c 5.33813,-2.41144 10.49267,-5.33197 15.32056,-8.68036 z m -31.95026,14.42798 3.1048,12.62371 c -2.094,0.51508 -4.21125,0.97004 -6.35047,1.36323 0,0 -5.5e-4,1.2e-4 -5.5e-4,1.2e-4 -0.0247,0.005 -0.0495,0.009 -0.0741,0.0136 0,0 -0.004,7.3e-4 -0.004,7.3e-4 -0.0247,0.005 -0.0482,0.009 -0.0729,0.0133 -0.003,6.7e-4 -4.9e-4,1.2e-4 -0.004,7.3e-4 -0.0243,0.004 -0.0484,0.009 -0.0727,0.0132 0,0 -0.005,8.6e-4 -0.005,8.6e-4 -0.0239,0.004 -0.0484,0.009 -0.0723,0.0131 0,0 -0.004,6.1e-4 -0.004,6.1e-4 -0.12426,0.0225 -0.24859,0.0447 -0.37298,0.0668 0,0 -0.009,0.002 -0.009,0.002 -0.0203,0.004 -0.0418,0.007 -0.0622,0.011 -0.007,10e-4 -0.0113,0.002 -0.0184,0.003 -0.0192,0.003 -0.0386,0.007 -0.0578,0.0102 -0.0106,0.002 -0.0118,0.002 -0.0223,0.004 -0.0179,0.003 -0.0356,0.006 -0.0536,0.009 -0.007,10e-4 -0.0223,0.004 -0.0294,0.005 -0.0168,0.003 -0.0339,0.006 -0.0507,0.009 -0.0106,0.002 -0.0162,0.003 -0.0267,0.005 -0.0176,0.003 -0.0359,0.006 -0.0535,0.009 -0.007,0.001 -0.0184,0.003 -0.0254,0.004 -0.0179,0.003 -0.0364,0.006 -0.0543,0.009 -0.007,10e-4 -0.0144,0.002 -0.0214,0.004 -0.0679,0.0117 -0.13629,0.0235 -0.20422,0.0351 -0.004,5.4e-4 -0.005,8.5e-4 -0.009,0.001 -0.0176,0.003 -0.0349,0.006 -0.0524,0.009 -0.0106,0.002 -0.0177,0.003 -0.0283,0.005 -0.0148,0.003 -0.0303,0.005 -0.0452,0.008 -0.0142,0.002 -0.0229,0.004 -0.0371,0.006 -0.0148,0.002 -0.0289,0.005 -0.0436,0.007 -0.0106,0.002 -0.0261,0.004 -0.0367,0.006 -0.014,0.002 -0.0281,0.005 -0.0421,0.007 -0.0142,0.002 -0.0263,0.004 -0.0405,0.007 -0.0136,0.002 -0.0273,0.005 -0.041,0.007 -0.0142,0.002 -0.0252,0.004 -0.0394,0.007 -0.0136,0.002 -0.0275,0.005 -0.0411,0.007 -0.0142,0.002 -0.0251,0.004 -0.0393,0.007 -0.0144,0.002 -0.029,0.005 -0.0434,0.007 -0.0142,0.002 -0.0241,0.004 -0.0383,0.006 -0.0136,0.002 -0.0267,0.004 -0.0403,0.007 -0.0177,0.003 -0.0409,0.007 -0.0586,0.01 -0.007,10e-4 -0.0144,0.002 -0.0216,0.004 -0.0283,0.005 -0.0534,0.009 -0.0818,0.0134 -0.006,10e-4 -0.0123,0.002 -0.0187,0.003 -0.0177,0.003 -0.0431,0.007 -0.0609,0.01 -0.0108,0.002 -0.0224,0.004 -0.0332,0.005 -0.0178,0.003 -0.0317,0.005 -0.0494,0.008 -0.0112,0.002 -0.0218,0.004 -0.0331,0.005 -0.0178,0.003 -0.0305,0.005 -0.0482,0.008 -0.0109,0.002 -0.022,0.004 -0.0328,0.005 -0.0178,0.003 -0.0323,0.005 -0.0501,0.008 -0.0108,0.002 -0.022,0.004 -0.0329,0.005 -0.0142,0.002 -0.0331,0.005 -0.0474,0.008 -0.0116,0.002 -0.0233,0.004 -0.0349,0.006 -0.0178,0.003 -0.0316,0.005 -0.0493,0.008 -0.0104,0.002 -0.0209,0.003 -0.0314,0.005 -0.0178,0.003 -0.0391,0.006 -0.0569,0.009 -0.008,10e-4 -0.0155,0.002 -0.0231,0.004 -0.0248,0.004 -0.0421,0.007 -0.0669,0.0106 -0.005,7.9e-4 -0.0106,0.002 -0.0158,0.002 -0.0568,0.009 -0.10877,0.017 -0.16565,0.0258 -0.005,7.9e-4 -0.01,0.001 -0.0148,0.002 -0.0248,0.004 -0.0433,0.007 -0.0682,0.0105 -0.007,10e-4 -0.0132,0.002 -0.02,0.003 -0.0213,0.003 -0.0397,0.006 -0.061,0.009 -0.008,10e-4 -0.0173,0.003 -0.0258,0.004 -0.0178,0.003 -0.0389,0.006 -0.0567,0.009 -0.009,10e-4 -0.0179,0.003 -0.0267,0.004 -0.0214,0.003 -0.0366,0.006 -0.058,0.009 -0.008,10e-4 -0.0148,0.002 -0.0225,0.003 -0.0214,0.003 -0.042,0.006 -0.0633,0.01 -0.006,9.8e-4 -0.0129,0.002 -0.0193,0.003 -0.0214,0.003 -0.0481,0.007 -0.0695,0.0104 -0.004,6.1e-4 -0.008,10e-4 -0.0119,0.002 -0.0249,0.004 -0.051,0.008 -0.0759,0.0113 -0.002,3.7e-4 -0.006,8.6e-4 -0.008,10e-4 -0.0854,0.0128 -0.16833,0.0251 -0.25384,0.0377 -0.002,2.5e-4 -0.004,5.5e-4 -0.005,7.3e-4 -0.0249,0.004 -0.0508,0.008 -0.0758,0.0112 -0.005,7.4e-4 -0.0115,0.002 -0.0167,0.002 -0.025,0.004 -0.0443,0.006 -0.0693,0.0101 -0.004,6.1e-4 -0.009,10e-4 -0.0129,0.002 -0.0214,0.003 -0.0479,0.007 -0.0692,0.0101 -0.006,7.9e-4 -0.0111,0.002 -0.0167,0.002 -0.0214,0.003 -0.0476,0.007 -0.069,0.01 -0.004,6.1e-4 -0.01,10e-4 -0.0143,0.002 -0.0214,0.003 -0.0491,0.007 -0.0706,0.0101 -0.004,6.7e-4 -0.009,10e-4 -0.0131,0.002 -0.0285,0.004 -0.0502,0.007 -0.0787,0.0112 -10e-4,1.8e-4 -0.003,3.6e-4 -0.004,5.5e-4 -0.0856,0.0122 -0.17041,0.0242 -0.2561,0.0361 -3.7e-4,6e-5 1.8e-4,0 -2.5e-4,6e-5 -0.0286,0.004 -0.0529,0.007 -0.0815,0.0113 -0.005,6.8e-4 -0.01,10e-4 -0.0148,0.002 -0.0214,0.003 -0.0466,0.006 -0.068,0.009 -0.006,9.1e-4 -0.013,0.002 -0.0195,0.003 -0.0214,0.003 -0.0423,0.006 -0.0638,0.009 -0.007,9.2e-4 -0.0131,0.002 -0.02,0.003 -0.0214,0.003 -0.0419,0.006 -0.0633,0.009 -0.007,9.7e-4 -0.0145,0.002 -0.0217,0.003 -0.0214,0.003 -0.0428,0.006 -0.0643,0.009 -0.006,7.9e-4 -0.0119,0.002 -0.0176,0.002 -0.0214,0.003 -0.0465,0.006 -0.0679,0.009 -0.006,8e-4 -0.0105,10e-4 -0.0162,0.002 -0.11438,0.0154 -0.22107,0.0297 -0.33557,0.0448 -0.005,7.3e-4 -0.0101,0.001 -0.0154,0.002 -0.0215,0.003 -0.0463,0.006 -0.0677,0.009 -0.007,9.1e-4 -0.014,0.002 -0.0209,0.003 -0.0215,0.003 -0.0387,0.005 -0.0602,0.008 -0.009,10e-4 -0.0177,0.002 -0.0266,0.003 -0.0215,0.003 -0.0364,0.005 -0.0579,0.008 -0.008,10e-4 -0.0168,0.002 -0.0253,0.003 -0.0179,0.002 -0.0393,0.005 -0.0572,0.007 -0.009,0.001 -0.0172,0.002 -0.0261,0.003 -0.0216,0.003 -0.039,0.005 -0.0605,0.008 -0.008,9.8e-4 -0.015,0.002 -0.0227,0.003 -0.0179,0.002 -0.04,0.005 -0.0579,0.007 -0.009,10e-4 -0.0177,0.002 -0.0266,0.003 -0.0215,0.003 -0.0466,0.006 -0.0681,0.009 -0.004,5.5e-4 -0.009,10e-4 -0.0137,0.002 -0.0286,0.004 -0.0557,0.007 -0.0844,0.0106 -0.001,1.2e-4 -0.002,2.4e-4 -0.003,3.7e-4 -0.0287,0.004 -0.0499,0.006 -0.0786,0.01 -0.009,0.001 -0.0181,0.002 -0.0267,0.003 -0.0179,0.002 -0.0369,0.005 -0.0548,0.007 -0.0113,0.001 -0.0229,0.003 -0.0342,0.004 -0.018,0.002 -0.0303,0.004 -0.0482,0.006 -0.0113,10e-4 -0.0225,0.003 -0.0339,0.004 -0.0143,0.002 -0.0344,0.004 -0.0488,0.006 -0.0122,10e-4 -0.024,0.003 -0.0362,0.004 -0.0143,0.002 -0.0308,0.004 -0.0452,0.005 -0.0126,0.002 -0.0254,0.003 -0.038,0.005 -0.0107,0.001 -0.0308,0.004 -0.0416,0.005 -0.0146,0.002 -0.0286,0.003 -0.0432,0.005 -0.0144,0.002 -0.0226,0.003 -0.037,0.004 -0.015,0.002 -0.0293,0.004 -0.0443,0.005 -0.0108,0.001 -0.0257,0.003 -0.0364,0.004 -0.0154,0.002 -0.0314,0.004 -0.0469,0.006 -0.007,8.6e-4 -0.0157,0.002 -0.023,0.003 -0.0435,0.005 -0.0873,0.0104 -0.13086,0.0154 0,0 -0.003,4.3e-4 -0.003,4.3e-4 -0.0163,0.002 -0.0328,0.004 -0.0491,0.006 -0.0108,10e-4 -0.0242,0.003 -0.035,0.004 -0.0154,0.002 -0.0311,0.004 -0.0466,0.005 -0.0108,10e-4 -0.0224,0.003 -0.0332,0.004 -0.0175,0.002 -0.034,0.004 -0.0515,0.006 -0.0108,10e-4 -0.0181,0.002 -0.0289,0.003 -0.0187,0.002 -0.0375,0.004 -0.0562,0.006 -0.007,8.6e-4 -0.0143,0.002 -0.0215,0.002 -0.0195,0.002 -0.0396,0.005 -0.0591,0.007 -0.007,7.9e-4 -0.0149,0.002 -0.0221,0.003 -0.0195,0.002 -0.0399,0.005 -0.0594,0.007 -0.007,7.9e-4 -0.0109,10e-4 -0.0181,0.002 -0.0212,0.002 -0.0417,0.005 -0.0628,0.007 -0.004,4.3e-4 -0.01,10e-4 -0.0135,0.002 -0.15179,0.0171 -0.30444,0.0339 -0.45636,0.0503 0,0 -0.003,3.1e-4 -0.003,3.1e-4 -0.0248,0.003 -0.0504,0.005 -0.0752,0.008 -0.004,3.7e-4 -1.2e-4,0 -0.004,4.3e-4 -0.0249,0.003 -0.0497,0.005 -0.0745,0.008 0,0 -0.004,4.9e-4 -0.004,4.9e-4 -1.72058,0.18366 -3.45313,0.32764 -5.19648,0.43097 l -0.76947,-12.97717 c 5.87507,-0.34827 11.73346,-1.23322 17.41242,-2.62988 z M 822.61548,542 h 20 v 13 c 0,0 -20,0 -20,0 z m -40,0 h 20 v 13 c 0,0 -20,0 -20,0 z m -40,0 h 20 v 13 c 0,0 -20,0 -20,0 z m -40,0 h 20 v 13 c 0,0 -20,0 -20,0 z m -40,0 h 20 v 13 c 0,0 -20,0 -20,0 z m -40,0 h 20 v 13 c 0,0 -20,0 -20,0 z m -40,0 h 20 v 13 c 0,0 -20,0 -20,0 z m -40,0 h 20 v 13 c 0,0 -20,0 -20,0 z m -40,0 h 20 v 13 c 0,0 -20,0 -20,0 z m -40,0 h 20 v 13 c 0,0 -20,0 -20,0 z m -40,0 h 20 v 13 c 0,0 -20,0 -20,0 z m -40,0 h 20 v 13 c 0,0 -20,0 -20,0 z m -40,0 h 20 v 13 c 0,0 -20,0 -20,0 z m -40,0 h 20 v 13 c 0,0 -20,0 -20,0 z m -40,0 h 20 v 13 c 0,0 -20,0 -20,0 z m -40,0 h 20 v 13 c 0,0 -20,0 -20,0 z m -40,0 h 20 v 13 c 0,0 -20,0 -20,0 z m -40,0 h 20 v 13 c 0,0 -20,0 -20,0 z m -39.13684,-0.21521 C 105.63397,541.92749 107.80853,542 110,542 h 12.61548 v 13 c 0,0 -12.61548,0 -12.61548,0 -0.046,0 -0.0925,-6e-5 -0.13812,-1.2e-4 -0.0357,0 -0.0733,-6e-5 -0.10895,-1.9e-4 -0.0374,-6e-5 -0.0664,-1.2e-4 -0.104,-2.4e-4 -0.046,-1.2e-4 -0.0891,-3e-4 -0.13514,-4.9e-4 -0.0371,-1.8e-4 -0.0723,-3.6e-4 -0.10943,-5.5e-4 -0.0365,-1.8e-4 -0.0696,-3.6e-4 -0.10584,-6.1e-4 -0.0431,-2.4e-4 -0.0839,-5.5e-4 -0.12713,-8.5e-4 -0.0398,-3.1e-4 -0.0772,-6.1e-4 -0.11701,-9.2e-4 -0.0357,-3e-4 -0.0703,-6.1e-4 -0.10565,-9.7e-4 -0.0404,-3.7e-4 -0.0695,-6.8e-4 -0.11096,-10e-4 -0.0432,-4.3e-4 -0.0832,-8.6e-4 -0.12641,-10e-4 -0.0384,-4.8e-4 -0.0723,-8.5e-4 -0.11071,-10e-4 -0.0738,-9.1e-4 -0.14777,-0.002 -0.22156,-0.003 -0.0371,-5.5e-4 -0.0754,-10e-4 -0.11292,-0.002 -0.004,0 -0.008,-1.2e-4 -0.0118,-1.2e-4 -0.11328,-0.002 -0.2268,-0.004 -0.33996,-0.006 0,0 -0.005,-6e-5 -0.005,-6e-5 -1.77405,-0.0331 -3.53784,-0.10815 -5.29047,-0.22424 z m -33.981203,-8.61615 c 5.327758,2.45203 10.908935,4.42511 16.588806,5.86456 l -3.193604,12.60163 c -3.059265,-0.77533 -6.067077,-1.67871 -9.018127,-2.70435 0,0 -0.0061,-0.002 -0.0061,-0.002 -0.02271,-0.008 -0.04541,-0.0158 -0.06805,-0.0237 -0.0034,-10e-4 -0.0026,-9.1e-4 -0.0059,-0.002 -0.02271,-0.008 -0.04553,-0.0159 -0.06824,-0.0237 0,0 -0.0063,-0.002 -0.0063,-0.002 -0.02271,-0.008 -0.04584,-0.016 -0.06848,-0.0239 -0.0034,-10e-4 -0.0016,-6.1e-4 -0.005,-0.002 -0.02301,-0.008 -0.04547,-0.0159 -0.06848,-0.024 0,0 -0.0067,-0.002 -0.0067,-0.002 -0.192383,-0.0674 -0.384888,-0.13562 -0.576721,-0.20416 -0.0033,-0.001 -0.0066,-0.002 -0.0099,-0.003 -0.0199,-0.007 -0.04053,-0.0145 -0.06042,-0.0216 -0.0033,-10e-4 -0.0119,-0.004 -0.0152,-0.005 -0.0191,-0.007 -0.03833,-0.0137 -0.05743,-0.0206 -0.0067,-0.002 -0.01135,-0.004 -0.01801,-0.006 -0.01947,-0.007 -0.03845,-0.0139 -0.05798,-0.0209 -0.0033,-10e-4 -0.01343,-0.005 -0.01672,-0.006 -0.01837,-0.007 -0.03668,-0.0132 -0.05505,-0.0198 -0.0066,-0.002 -0.01575,-0.006 -0.02234,-0.008 -0.01795,-0.006 -0.03644,-0.0131 -0.05438,-0.0197 -0.0033,-10e-4 -0.0155,-0.006 -0.0188,-0.007 -0.01837,-0.007 -0.03699,-0.0134 -0.0553,-0.02 -0.0066,-0.002 -0.01337,-0.005 -0.01996,-0.007 -0.0191,-0.007 -0.03815,-0.0138 -0.05719,-0.0208 -0.0033,-10e-4 -0.0099,-0.004 -0.01324,-0.005 -0.01984,-0.007 -0.04053,-0.0148 -0.06036,-0.022 -0.0066,-0.002 -0.0084,-0.003 -0.01495,-0.005 -0.117615,-0.0428 -0.23529,-0.0858 -0.352722,-0.12903 0,0 -0.0018,-6.1e-4 -0.0018,-6.1e-4 -0.01984,-0.007 -0.03967,-0.0146 -0.05951,-0.0219 -0.0066,-0.002 -0.01074,-0.004 -0.01727,-0.006 -0.01868,-0.007 -0.03693,-0.0136 -0.0556,-0.0205 -0.0066,-0.002 -0.01276,-0.005 -0.01935,-0.007 -0.01636,-0.006 -0.03332,-0.0123 -0.04968,-0.0184 -0.0099,-0.004 -0.01947,-0.007 -0.02936,-0.0109 -0.01483,-0.005 -0.02991,-0.011 -0.0448,-0.0166 -0.0098,-0.004 -0.02008,-0.007 -0.02991,-0.0111 -0.01526,-0.006 -0.03033,-0.0112 -0.04553,-0.0169 -0.01312,-0.005 -0.01788,-0.007 -0.03101,-0.0115 -0.01483,-0.005 -0.02911,-0.0108 -0.04394,-0.0163 -0.0098,-0.004 -0.02173,-0.008 -0.03156,-0.0117 -0.0141,-0.005 -0.02911,-0.0109 -0.04321,-0.0161 -0.0098,-0.004 -0.02582,-0.01 -0.03564,-0.0134 -0.01294,-0.005 -0.02637,-0.01 -0.03931,-0.0146 -0.01312,-0.005 -0.02331,-0.009 -0.03644,-0.0137 -0.01331,-0.005 -0.02618,-0.01 -0.03949,-0.0148 -0.01312,-0.005 -0.02411,-0.009 -0.03723,-0.014 -0.01294,-0.005 -0.02551,-0.01 -0.03845,-0.0145 -0.01312,-0.005 -0.02643,-0.01 -0.03955,-0.0149 -0.01178,-0.004 -0.02423,-0.009 -0.03601,-0.0135 -0.02289,-0.009 -0.04486,-0.017 -0.06775,-0.0256 -0.01257,-0.005 -0.02496,-0.009 -0.03748,-0.0142 -0.01642,-0.006 -0.02838,-0.0107 -0.04474,-0.0169 -0.01025,-0.004 -0.021,-0.008 -0.03125,-0.0118 -0.01306,-0.005 -0.03216,-0.0122 -0.04523,-0.0172 -0.01025,-0.004 -0.01984,-0.008 -0.03009,-0.0114 -0.01636,-0.006 -0.02972,-0.0113 -0.04608,-0.0175 -0.01062,-0.004 -0.02161,-0.008 -0.03223,-0.0123 -0.01636,-0.006 -0.02734,-0.0104 -0.0437,-0.0166 -0.01062,-0.004 -0.02142,-0.008 -0.03204,-0.0122 -0.01636,-0.006 -0.02771,-0.0106 -0.04407,-0.0168 -0.01099,-0.004 -0.02185,-0.008 -0.03284,-0.0125 -0.01312,-0.005 -0.03058,-0.0117 -0.04364,-0.0167 -0.01025,-0.004 -0.02039,-0.008 -0.03058,-0.0117 -0.01312,-0.005 -0.03332,-0.0128 -0.04639,-0.0178 -0.01025,-0.004 -0.02051,-0.008 -0.03076,-0.0118 -0.0163,-0.006 -0.03015,-0.0116 -0.04651,-0.0179 -0.0091,-0.003 -0.01886,-0.007 -0.02795,-0.0107 -0.0163,-0.006 -0.03357,-0.0129 -0.04987,-0.0192 -0.0091,-0.004 -0.0177,-0.007 -0.02679,-0.0104 -0.01636,-0.006 -0.03766,-0.0145 -0.05396,-0.0208 -0.0068,-0.003 -0.01367,-0.005 -0.02051,-0.008 -0.01959,-0.008 -0.0379,-0.0147 -0.0575,-0.0223 -0.0068,-0.003 -0.01318,-0.005 -0.01996,-0.008 -0.07831,-0.0303 -0.153076,-0.0594 -0.231323,-0.0899 -7.33e-4,-3.1e-4 -0.0014,-5.5e-4 -0.0021,-8.6e-4 -0.02606,-0.0101 -0.04687,-0.0183 -0.07294,-0.0284 -0.0049,-0.002 -0.0095,-0.004 -0.0144,-0.006 -0.02283,-0.009 -0.04041,-0.0158 -0.06323,-0.0248 -0.0042,-0.002 -0.0092,-0.004 -0.01331,-0.005 -0.01953,-0.008 -0.04303,-0.0168 -0.06256,-0.0245 -0.0053,-0.002 -0.01074,-0.004 -0.01599,-0.006 -0.01953,-0.008 -0.0426,-0.0167 -0.06213,-0.0244 -0.0046,-0.002 -0.01001,-0.004 -0.01453,-0.006 -0.01953,-0.008 -0.03998,-0.0157 -0.05945,-0.0234 -0.0064,-0.003 -0.01312,-0.005 -0.01959,-0.008 -0.01947,-0.008 -0.0415,-0.0163 -0.06097,-0.024 -0.0045,-0.002 -0.0084,-0.003 -0.01294,-0.005 -0.01953,-0.008 -0.047,-0.0186 -0.06653,-0.0263 -0.0034,-10e-4 -0.006,-0.002 -0.0094,-0.004 -0.026,-0.0103 -0.04681,-0.0186 -0.07281,-0.0289 -0.0011,-4.9e-4 -0.0016,-6.7e-4 -0.0028,-10e-4 -0.233886,-0.0929 -0.465881,-0.18591 -0.698974,-0.28033 -7.94e-4,-3.1e-4 -9.77e-4,-3.7e-4 -0.0017,-6.8e-4 -1.573487,-0.63726 -3.131531,-1.31115 -4.667847,-2.01818 z M 40.801331,512.97467 c 4.117614,4.19122 8.638122,8.02881 13.435974,11.40613 l -7.483033,10.63043 C 41.293213,531.16675 36.195312,526.836 31.527954,522.08527 Z M 21.122803,483.92599 c 2.353088,5.36402 5.217346,10.54975 8.513061,15.41321 l -10.761718,7.29279 c -1.313416,-1.93826 -2.567322,-3.92163 -3.75763,-5.94544 -4.27e-4,-7e-4 -3.05e-4,-5.5e-4 -7.32e-4,-0.001 -0.01404,-0.0238 -0.02637,-0.0448 -0.04035,-0.0687 -10e-4,-0.002 -0.0019,-0.003 -0.0029,-0.005 -0.01404,-0.0238 -0.02509,-0.0427 -0.03912,-0.0666 -7.93e-4,-0.001 -0.0017,-0.003 -0.0026,-0.004 -0.01398,-0.0239 -0.02502,-0.0427 -0.039,-0.0666 -8.54e-4,-10e-4 -0.0021,-0.004 -0.0029,-0.005 -0.01398,-0.0239 -0.0249,-0.0427 -0.03888,-0.0666 -7.93e-4,-0.001 -0.002,-0.003 -0.0028,-0.005 -0.01392,-0.0239 -0.02545,-0.0437 -0.03943,-0.0676 -6.1e-4,-10e-4 -0.0013,-0.002 -0.0019,-0.003 -0.01392,-0.0239 -0.02673,-0.0458 -0.04065,-0.0697 -1.83e-4,-3.3e-4 -4.88e-4,-8.5e-4 -6.71e-4,-10e-4 -0.09747,-0.16739 -0.193726,-0.3338 -0.290283,-0.50174 -10e-4,-0.002 -0.0017,-0.003 -0.0027,-0.005 -0.01379,-0.024 -0.02423,-0.0421 -0.03802,-0.0661 -0.0016,-0.003 -0.0034,-0.006 -0.0049,-0.009 -0.01031,-0.018 -0.02435,-0.0425 -0.03473,-0.0605 -0.003,-0.005 -0.0062,-0.0109 -0.0092,-0.0162 -0.01032,-0.018 -0.02081,-0.0363 -0.03113,-0.0544 -0.0032,-0.006 -0.0064,-0.0111 -0.0096,-0.0168 -0.01032,-0.018 -0.02093,-0.0366 -0.03119,-0.0546 -0.0031,-0.005 -0.0063,-0.0111 -0.0094,-0.0165 -0.01032,-0.018 -0.02161,-0.0378 -0.03186,-0.0559 -0.0026,-0.005 -0.0053,-0.009 -0.0079,-0.0139 -0.01031,-0.018 -0.02246,-0.0394 -0.03271,-0.0574 -0.0028,-0.005 -0.0052,-0.009 -0.0081,-0.0142 -0.01032,-0.018 -0.0224,-0.0394 -0.03265,-0.0574 -0.0026,-0.005 -0.0051,-0.009 -0.0078,-0.0136 -0.01025,-0.0181 -0.02246,-0.0396 -0.03271,-0.0577 -0.0028,-0.005 -0.0052,-0.009 -0.0081,-0.0142 -0.01025,-0.0181 -0.02216,-0.0391 -0.03241,-0.0572 -0.0027,-0.005 -0.0051,-0.009 -0.0079,-0.0141 -0.0119,-0.0211 -0.02136,-0.0378 -0.03326,-0.0588 -0.0024,-0.004 -0.0045,-0.008 -0.007,-0.0123 -0.08173,-0.14462 -0.159302,-0.28268 -0.240357,-0.42773 -0.0036,-0.006 -0.0075,-0.0134 -0.01105,-0.0198 -0.0085,-0.0151 -0.01996,-0.0357 -0.02844,-0.0508 -0.0042,-0.007 -0.0079,-0.0143 -0.01215,-0.0218 -0.0084,-0.0151 -0.01941,-0.0348 -0.02783,-0.0499 -0.0037,-0.007 -0.007,-0.0125 -0.01068,-0.0192 -0.01013,-0.0182 -0.0199,-0.0358 -0.03003,-0.0539 -0.0032,-0.006 -0.0061,-0.0111 -0.0093,-0.0168 -0.01013,-0.0182 -0.01917,-0.0344 -0.02924,-0.0526 -0.004,-0.007 -0.0079,-0.0142 -0.01184,-0.0213 -0.01007,-0.0182 -0.01807,-0.0325 -0.02814,-0.0507 -0.0035,-0.006 -0.0074,-0.0135 -0.01099,-0.0199 -0.01007,-0.0182 -0.01917,-0.0346 -0.02924,-0.0528 -0.0032,-0.006 -0.0067,-0.012 -0.0098,-0.0177 -0.01007,-0.0182 -0.01965,-0.0355 -0.02972,-0.0537 -0.0034,-0.006 -0.0072,-0.0131 -0.01056,-0.0191 -0.0084,-0.0151 -0.01935,-0.0351 -0.02771,-0.0502 -0.0041,-0.007 -0.0078,-0.0142 -0.0119,-0.0216 -0.0084,-0.0152 -0.02063,-0.0375 -0.02899,-0.0527 -0.0034,-0.006 -0.0067,-0.0121 -0.01001,-0.0181 -0.01166,-0.0212 -0.01935,-0.0352 -0.03101,-0.0565 -0.0026,-0.005 -0.0054,-0.01 -0.0079,-0.0145 -0.01172,-0.0212 -0.02161,-0.0394 -0.03326,-0.0606 -0.002,-0.004 -0.0043,-0.008 -0.0062,-0.0113 -0.01166,-0.0213 -0.02356,-0.0431 -0.03522,-0.0643 -0.0013,-0.003 -0.0027,-0.005 -0.0042,-0.008 -0.01331,-0.0243 -0.02618,-0.0478 -0.03943,-0.0722 -6.1e-4,-10e-4 -0.0014,-0.003 -0.002,-0.004 -0.01331,-0.0243 -0.02368,-0.0434 -0.03693,-0.0677 -0.0031,-0.006 -0.0065,-0.012 -0.0096,-0.0177 -0.0083,-0.0152 -0.02014,-0.0369 -0.02844,-0.0522 -0.0051,-0.009 -0.0105,-0.0193 -0.01556,-0.0286 -0.0066,-0.0122 -0.01581,-0.0291 -0.02246,-0.0413 -0.006,-0.0111 -0.01184,-0.0218 -0.01782,-0.0329 -0.0067,-0.0122 -0.01483,-0.0273 -0.02142,-0.0394 -0.0051,-0.009 -0.01007,-0.0186 -0.01508,-0.0279 -0.0083,-0.0152 -0.0155,-0.0286 -0.02374,-0.0439 -0.0052,-0.01 -0.01068,-0.0197 -0.01593,-0.0293 -0.0082,-0.0153 -0.0141,-0.0262 -0.02234,-0.0414 -0.0052,-0.01 -0.01068,-0.0197 -0.01593,-0.0294 -0.0065,-0.0122 -0.01605,-0.0297 -0.02258,-0.0419 -0.0056,-0.0104 -0.0108,-0.0199 -0.01636,-0.0303 -0.0066,-0.0122 -0.01636,-0.0303 -0.02295,-0.0425 -0.0048,-0.009 -0.0095,-0.0175 -0.01428,-0.0265 -0.0082,-0.0153 -0.01599,-0.0297 -0.02417,-0.045 -0.005,-0.009 -0.01032,-0.0192 -0.01532,-0.0285 -0.0082,-0.0153 -0.01495,-0.0278 -0.02313,-0.0431 -0.0048,-0.009 -0.0098,-0.0182 -0.01453,-0.0271 -0.0082,-0.0153 -0.01501,-0.028 -0.02325,-0.0433 -0.0054,-0.01 -0.01074,-0.0201 -0.01611,-0.0301 -0.0082,-0.0153 -0.0155,-0.0289 -0.02368,-0.0442 -0.0044,-0.008 -0.009,-0.0168 -0.01337,-0.025 -0.0082,-0.0153 -0.01654,-0.031 -0.02472,-0.0463 -0.0048,-0.009 -0.0097,-0.0183 -0.01453,-0.0272 -0.0098,-0.0183 -0.02008,-0.0377 -0.02985,-0.056 -0.0025,-0.005 -0.0046,-0.009 -0.0071,-0.0134 -0.01141,-0.0214 -0.02344,-0.044 -0.03485,-0.0655 -0.0019,-0.004 -0.0035,-0.007 -0.0054,-0.0103 -0.02606,-0.049 -0.04877,-0.0918 -0.07471,-0.14078 -0.0036,-0.007 -0.0072,-0.0136 -0.0108,-0.0205 -0.0081,-0.0153 -0.0188,-0.0355 -0.02692,-0.0508 -0.0051,-0.01 -0.0098,-0.0186 -0.01495,-0.0283 -0.0065,-0.0123 -0.0152,-0.0287 -0.02167,-0.041 -0.0059,-0.0111 -0.01141,-0.0216 -0.01733,-0.0328 -0.0064,-0.0122 -0.01514,-0.0288 -0.02161,-0.041 -0.0049,-0.009 -0.01013,-0.0193 -0.01508,-0.0286 -0.0081,-0.0154 -0.0141,-0.0268 -0.02222,-0.0422 -0.0053,-0.0101 -0.01056,-0.0201 -0.01587,-0.0302 -0.0081,-0.0154 -0.01453,-0.0277 -0.02258,-0.0431 -0.0049,-0.009 -0.0097,-0.0185 -0.01465,-0.0279 -0.0065,-0.0123 -0.0163,-0.0311 -0.02277,-0.0434 -0.0049,-0.009 -0.0099,-0.019 -0.01483,-0.0284 -0.0081,-0.0154 -0.01575,-0.0301 -0.0238,-0.0454 -0.0047,-0.009 -0.0093,-0.0178 -0.01404,-0.0268 -0.008,-0.0154 -0.01416,-0.0272 -0.02222,-0.0426 -0.0052,-0.0101 -0.01068,-0.0205 -0.01593,-0.0306 -0.0081,-0.0154 -0.01343,-0.0257 -0.02142,-0.0411 -0.0055,-0.0105 -0.01093,-0.0209 -0.01636,-0.0314 -0.0064,-0.0123 -0.01404,-0.0269 -0.02045,-0.0392 -0.0056,-0.0108 -0.01117,-0.0215 -0.01679,-0.0324 -0.0064,-0.0123 -0.01581,-0.0305 -0.02222,-0.0428 -0.0049,-0.009 -0.01013,-0.0194 -0.01501,-0.0288 -0.0079,-0.0154 -0.01746,-0.0337 -0.02539,-0.0491 -0.004,-0.008 -0.0074,-0.0142 -0.01135,-0.0218 -0.01117,-0.0216 -0.02075,-0.0401 -0.03192,-0.0617 -0.0018,-0.004 -0.0035,-0.007 -0.0054,-0.0105 -0.01276,-0.0247 -0.0249,-0.0483 -0.03766,-0.0729 -9.15e-4,-0.002 -0.0018,-0.003 -0.0027,-0.005 -0.01111,-0.0216 -0.02313,-0.0448 -0.03424,-0.0664 -0.0041,-0.008 -0.0081,-0.0157 -0.01221,-0.0236 -0.0079,-0.0154 -0.01666,-0.0324 -0.0246,-0.0479 -0.0052,-0.0102 -0.01025,-0.0199 -0.01544,-0.0301 -0.0063,-0.0124 -0.01514,-0.0294 -0.02148,-0.0418 -0.0054,-0.0105 -0.01099,-0.0215 -0.01642,-0.032 -0.0063,-0.0124 -0.01373,-0.0268 -0.02008,-0.0392 -0.0063,-0.0123 -0.01227,-0.024 -0.01862,-0.0363 -0.0063,-0.0124 -0.01178,-0.023 -0.01807,-0.0354 -0.0059,-0.0116 -0.01147,-0.0225 -0.01746,-0.0341 -0.0079,-0.0155 -0.01233,-0.0241 -0.0202,-0.0396 -0.0054,-0.0105 -0.01062,-0.0208 -0.01599,-0.0314 -0.0079,-0.0154 -0.01379,-0.027 -0.02167,-0.0425 -0.0046,-0.009 -0.0096,-0.0188 -0.01422,-0.0279 -0.0063,-0.0124 -0.01617,-0.0319 -0.02246,-0.0442 -0.005,-0.01 -0.01019,-0.0201 -0.0152,-0.0299 -0.0063,-0.0124 -0.01563,-0.0308 -0.02191,-0.0432 -0.0048,-0.009 -0.0095,-0.0186 -0.01428,-0.0281 -0.0078,-0.0155 -0.01428,-0.0283 -0.02216,-0.0437 -0.005,-0.01 -0.01031,-0.0204 -0.01526,-0.0302 -0.0079,-0.0155 -0.01428,-0.0282 -0.0221,-0.0436 -0.0046,-0.009 -0.0092,-0.0181 -0.01373,-0.0272 -0.0078,-0.0155 -0.01508,-0.0297 -0.02289,-0.0453 -0.0048,-0.009 -0.0097,-0.0192 -0.01446,-0.0286 -0.0078,-0.0155 -0.01849,-0.0367 -0.02631,-0.0522 -0.0029,-0.006 -0.006,-0.0119 -0.0089,-0.0177 -0.01093,-0.0217 -0.02197,-0.0436 -0.0329,-0.0653 -0.0013,-0.003 -0.0025,-0.005 -0.0038,-0.007 -0.0249,-0.0497 -0.04919,-0.098 -0.0741,-0.14771 -6.72e-4,-0.001 -0.0018,-0.004 -0.0025,-0.005 -0.01245,-0.0248 -0.02173,-0.0434 -0.03412,-0.0682 -0.0022,-0.004 -0.0045,-0.009 -0.0067,-0.0133 -0.0093,-0.0186 -0.01978,-0.0396 -0.02905,-0.0582 -0.0038,-0.008 -0.0077,-0.0155 -0.01154,-0.0232 -0.0078,-0.0155 -0.01709,-0.0343 -0.02484,-0.0499 -0.0046,-0.009 -0.0094,-0.0188 -0.01392,-0.0279 -0.0078,-0.0156 -0.013,-0.0261 -0.02069,-0.0417 -0.0057,-0.0113 -0.01135,-0.0228 -0.01697,-0.0341 -0.0078,-0.0156 -0.01233,-0.0248 -0.02002,-0.0403 -0.0051,-0.0102 -0.01001,-0.0202 -0.01508,-0.0304 -0.0077,-0.0156 -0.01373,-0.0277 -0.02142,-0.0433 -0.0045,-0.009 -0.0088,-0.0179 -0.01337,-0.027 -0.0077,-0.0156 -0.0163,-0.0329 -0.02399,-0.0484 -0.0042,-0.008 -0.008,-0.0162 -0.01215,-0.0246 -0.0077,-0.0156 -0.01465,-0.0297 -0.02234,-0.0453 -0.0049,-0.01 -0.01013,-0.0205 -0.01501,-0.0304 -0.0076,-0.0156 -0.01349,-0.0275 -0.02118,-0.043 -0.0047,-0.01 -0.0096,-0.0196 -0.01434,-0.0291 -0.0076,-0.0156 -0.01385,-0.0283 -0.02154,-0.0438 -0.0049,-0.01 -0.0095,-0.0193 -0.01428,-0.0291 -0.0077,-0.0156 -0.01459,-0.0297 -0.02228,-0.0453 -0.0045,-0.009 -0.0092,-0.0187 -0.01367,-0.0279 -0.0061,-0.0125 -0.01416,-0.0289 -0.02026,-0.0414 -0.0054,-0.011 -0.01074,-0.0219 -0.01611,-0.0329 -0.0061,-0.0125 -0.01459,-0.0299 -0.02069,-0.0424 -0.0048,-0.01 -0.0095,-0.0194 -0.01434,-0.0294 -0.0092,-0.0187 -0.01709,-0.035 -0.02624,-0.0537 -0.0031,-0.006 -0.0062,-0.0126 -0.0092,-0.0189 -0.01215,-0.025 -0.02356,-0.0483 -0.03571,-0.0733 -8.55e-4,-0.002 -0.0022,-0.005 -0.0031,-0.006 -0.01062,-0.0218 -0.02118,-0.0435 -0.0318,-0.0654 -0.0054,-0.011 -0.01105,-0.0227 -0.01636,-0.0338 -0.0061,-0.0125 -0.01288,-0.0265 -0.01892,-0.039 -0.0054,-0.011 -0.01086,-0.0225 -0.01624,-0.0335 -0.006,-0.0125 -0.01312,-0.0271 -0.01916,-0.0396 -0.006,-0.0125 -0.01221,-0.0252 -0.01825,-0.0377 -0.006,-0.0125 -0.01013,-0.021 -0.01617,-0.0335 -0.0064,-0.0132 -0.01312,-0.0272 -0.01947,-0.0404 -0.0046,-0.009 -0.01099,-0.0227 -0.0155,-0.0321 -0.0067,-0.014 -0.01312,-0.0272 -0.01984,-0.0412 -0.0045,-0.009 -0.01111,-0.023 -0.01563,-0.0324 -0.0062,-0.0129 -0.01202,-0.025 -0.01819,-0.0379 -0.006,-0.0125 -0.01086,-0.0226 -0.01691,-0.0351 -0.0063,-0.0132 -0.0127,-0.0264 -0.01904,-0.0397 -0.006,-0.0125 -0.0094,-0.0196 -0.01538,-0.0321 -0.0065,-0.0136 -0.01282,-0.0267 -0.01935,-0.0403 -0.0045,-0.009 -0.01099,-0.023 -0.0155,-0.0324 -0.0065,-0.0136 -0.01282,-0.0268 -0.01935,-0.0404 -0.0045,-0.009 -0.01184,-0.0248 -0.0163,-0.0342 -0.006,-0.0125 -0.0119,-0.0248 -0.01788,-0.0374 -0.006,-0.0125 -0.01074,-0.0226 -0.01672,-0.0352 -0.0063,-0.0133 -0.01245,-0.0261 -0.0188,-0.0394 -0.006,-0.0125 -0.0091,-0.0192 -0.01508,-0.0318 -0.0063,-0.0132 -0.01306,-0.0274 -0.01935,-0.0406 -0.0045,-0.009 -0.0096,-0.0204 -0.01416,-0.0298 -0.0071,-0.0151 -0.01416,-0.0298 -0.0213,-0.0449 -0.0045,-0.009 -0.0071,-0.015 -0.0116,-0.0245 -0.0073,-0.0155 -0.01465,-0.0309 -0.02197,-0.0464 -0.0059,-0.0126 -0.01093,-0.0231 -0.01685,-0.0357 -0.02606,-0.055 -0.05206,-0.11008 -0.07794,-0.16513 -0.0015,-0.003 -0.0057,-0.012 -0.0071,-0.0151 -0.0073,-0.0155 -0.01483,-0.0316 -0.02216,-0.0471 -0.0045,-0.009 -0.0082,-0.0176 -0.01269,-0.027 -0.007,-0.0148 -0.01416,-0.0301 -0.02106,-0.0449 -0.0045,-0.009 -0.0083,-0.0176 -0.01276,-0.0271 -0.0074,-0.0159 -0.01453,-0.0311 -0.02203,-0.047 -0.0029,-0.006 -0.009,-0.0194 -0.01202,-0.0257 -0.0074,-0.0159 -0.01508,-0.0323 -0.02252,-0.0482 -0.0029,-0.006 -0.0082,-0.0175 -0.01111,-0.0238 -0.0073,-0.0155 -0.01477,-0.0316 -0.02203,-0.0471 -0.0044,-0.009 -0.0084,-0.0179 -0.01276,-0.0273 -0.0071,-0.0152 -0.01422,-0.0305 -0.0213,-0.0457 -0.0044,-0.009 -0.0077,-0.0165 -0.01208,-0.026 -0.0076,-0.0163 -0.01483,-0.0319 -0.02246,-0.0482 -0.0029,-0.006 -0.0078,-0.0168 -0.01068,-0.0231 -0.0078,-0.0167 -0.01575,-0.0339 -0.0235,-0.0506 -0.0044,-0.009 -0.0053,-0.0115 -0.0097,-0.021 -0.0081,-0.0174 -0.01599,-0.0345 -0.02405,-0.0519 -0.0029,-0.006 -0.0064,-0.0138 -0.0093,-0.0201 -0.0082,-0.0178 -0.01648,-0.0356 -0.02472,-0.0535 -0.0029,-0.006 -0.0047,-0.0102 -0.0076,-0.0165 -0.0085,-0.0186 -0.01758,-0.0381 -0.02612,-0.0566 -0.0015,-0.003 -0.0044,-0.009 -0.0058,-0.0126 -0.0093,-0.02 -0.01886,-0.0409 -0.02814,-0.0609 -0.0014,-0.003 -6.1e-5,-2.4e-4 -0.0015,-0.003 -0.086669,-0.18826 -0.1727901,-0.3768 -0.2583614,-0.56564 -0.00146,-0.003 -3.662e-4,-6.7e-4 -0.00177,-0.004 -0.010132,-0.0224 -0.020386,-0.045 -0.030518,-0.0673 0,0 -0.00208,-0.005 -0.00208,-0.005 -0.010437,-0.0231 -0.020813,-0.0461 -0.03125,-0.0692 0,0 -6.714e-4,-10e-4 -6.714e-4,-10e-4 -0.010437,-0.0231 -0.021179,-0.0469 -0.031616,-0.0701 0,0 -7.324e-4,-0.002 -7.324e-4,-0.002 -0.010437,-0.0231 -0.021179,-0.047 -0.031616,-0.0701 0,0 -6.714e-4,-0.002 -6.714e-4,-0.002 -0.010559,-0.0235 -0.020996,-0.0468 -0.031555,-0.0703 0,0 -6.103e-4,-0.001 -6.103e-4,-0.001 -0.128479,-0.28622 -0.2559815,-0.57345 -0.3820801,-0.86096 z m -8.006775,-34.13467 c 0.285461,5.88162 1.106933,11.75067 2.441467,17.44415 l -12.6569823,2.96692 c -0.2619629,-1.11776 -0.5061646,-2.23864 -0.7338257,-3.36926 0,0 -6.1e-5,-2.1e-4 -6.1e-5,-2.1e-4 -0.022583,-0.112 -0.044678,-0.22269 -0.066895,-0.33481 -5.493e-4,-0.003 -0.00116,-0.006 -0.00165,-0.009 -0.00488,-0.0245 -0.0094,-0.0473 -0.014221,-0.0718 -0.0014,-0.007 -0.00269,-0.0135 -0.00409,-0.0207 -0.00415,-0.021 -0.00745,-0.0377 -0.011536,-0.0587 -0.00189,-0.009 -0.0036,-0.0183 -0.00549,-0.0278 -0.00342,-0.0175 -0.0069,-0.0353 -0.010315,-0.0528 -0.00214,-0.0107 -0.00409,-0.0207 -0.00616,-0.0314 -0.00275,-0.014 -0.00616,-0.0316 -0.00891,-0.0456 -0.00244,-0.0127 -0.00482,-0.0249 -0.00732,-0.0375 -0.00269,-0.014 -0.00574,-0.0296 -0.00848,-0.0436 -0.00244,-0.0127 -0.0047,-0.0244 -0.0072,-0.0371 -0.00269,-0.014 -0.00537,-0.0279 -0.00812,-0.0419 -0.0025,-0.0131 -0.00494,-0.0257 -0.00745,-0.0388 -0.00275,-0.014 -0.00494,-0.0255 -0.00763,-0.0396 -0.00275,-0.0143 -0.00549,-0.0282 -0.00818,-0.0425 -7.324e-4,-0.004 -0.0025,-0.013 -0.00317,-0.0165 -0.012817,-0.0666 -0.025757,-0.13415 -0.038391,-0.20074 -0.00134,-0.007 -0.00146,-0.008 -0.00281,-0.0147 -0.00385,-0.0202 -0.00769,-0.0403 -0.011475,-0.0606 -0.00134,-0.007 -0.00208,-0.0108 -0.00342,-0.0178 -0.00372,-0.0198 -0.00763,-0.0403 -0.011353,-0.0602 -0.00134,-0.007 -0.00208,-0.0108 -0.00336,-0.0179 -0.00385,-0.0202 -0.00769,-0.0407 -0.011475,-0.0609 -0.00134,-0.007 -0.00189,-0.01 -0.00323,-0.017 -0.00378,-0.0202 -0.00769,-0.0412 -0.011475,-0.0614 -6.714e-4,-0.004 -0.00226,-0.0118 -0.00293,-0.0154 -0.00403,-0.0218 -0.00812,-0.0437 -0.012207,-0.0655 -6.714e-4,-0.004 -4.883e-4,-0.003 -0.0011,-0.006 C 0.96234721,460.43439 0.37647074,455.47263 0.13135356,450.4209 Z M 0,410.42334 h 13 v 20 H 0 Z m 0,-40 h 13 v 20 H 0 Z m 0,-40 h 13 v 20 H 0 Z m 0,-40 h 13 v 20 H 0 Z m 0,-40 h 13 v 20 H 0 Z m 0,-40 h 13 v 20 H 0 Z m 0,-40 h 13 v 20 H 0 Z m 0,-40 h 13 v 20 H 0 Z M 1.7189331,90.523193 14.516296,92.809723 C 13.510132,98.440948 13,104.22455 13,110 v 0.42334 H 0 c 0,-6.51224 0.50018311,-12.548554 1.461853,-18.400971 0.00171,-0.01062 0.00317,-0.01938 0.00494,-0.03003 0.00201,-0.01239 0.00421,-0.02551 0.00623,-0.0379 0.00354,-0.02127 0.00647,-0.03921 0.01001,-0.06046 6.714e-4,-0.0043 0.00128,-0.0079 0.00201,-0.01215 0.075073,-0.453308 0.1532593,-0.907196 0.2339477,-1.358643 z M 15.724426,53.292664 26.857971,60.003998 c -3.031677,5.02948 -5.614746,10.358795 -7.677307,15.839996 l -12.1670532,-4.5784 c 0.2675782,-0.711181 0.5424805,-1.419189 0.8243409,-2.12326 0,0 0.00104,-0.0026 0.00104,-0.0026 0.00836,-0.0209 0.016968,-0.04233 0.02533,-0.0632 0.00262,-0.0065 0.00275,-0.0069 0.00537,-0.01337 0.00775,-0.01938 0.015442,-0.03851 0.023193,-0.05786 0.00262,-0.0065 0.00458,-0.01138 0.0072,-0.01785 0.00702,-0.01746 0.013733,-0.03409 0.020752,-0.05154 0.00391,-0.0097 0.00653,-0.01633 0.010498,-0.02606 0.00653,-0.0163 0.012939,-0.03223 0.019531,-0.04852 0.00262,-0.0065 0.00793,-0.01965 0.010559,-0.02615 0.00647,-0.01593 0.012756,-0.03149 0.019165,-0.04739 0.00391,-0.0097 0.0069,-0.01703 0.010803,-0.02676 0.00677,-0.01666 0.013611,-0.03351 0.020325,-0.0502 0.00262,-0.0065 0.00671,-0.01651 0.00934,-0.02298 0.00659,-0.0163 0.013184,-0.03247 0.019775,-0.04877 0.00525,-0.01294 0.0069,-0.017 0.012207,-0.02994 0.0061,-0.01514 0.01239,-0.03061 0.018555,-0.04575 0.00397,-0.0097 0.00714,-0.01746 0.011108,-0.02716 0.00629,-0.01553 0.012756,-0.03137 0.019104,-0.04687 0.00391,-0.0097 0.00684,-0.01678 0.010742,-0.02646 0.00665,-0.0163 0.013489,-0.03305 0.020142,-0.04932 0.00269,-0.0065 0.00812,-0.01981 0.010742,-0.02628 0.00635,-0.0155 0.012451,-0.03049 0.01886,-0.04599 0.010559,-0.02585 0.019775,-0.04831 0.030396,-0.07416 0.00354,-0.0087 0.00714,-0.0174 0.010681,-0.02609 0.00665,-0.01617 0.013794,-0.03357 0.020447,-0.04971 0.00403,-0.0098 0.00793,-0.01929 0.011963,-0.02911 0.00531,-0.01291 0.013489,-0.03278 0.018799,-0.04572 0.00409,-0.0098 0.00812,-0.01962 0.012207,-0.02945 0.00665,-0.01614 0.013061,-0.03171 0.019714,-0.04782 0.0036,-0.0087 0.00726,-0.01764 0.010864,-0.02631 0.00665,-0.01614 0.013245,-0.03204 0.019897,-0.04819 0.00391,-0.0094 0.00769,-0.01855 0.011597,-0.02799 0.00671,-0.01611 0.013672,-0.0329 0.020325,-0.04901 0.0036,-0.0087 0.0072,-0.0173 0.010803,-0.02597 0.00665,-0.01611 0.013611,-0.03278 0.020264,-0.04889 0.0036,-0.0087 0.0072,-0.0173 0.010803,-0.02597 0.00806,-0.01935 0.014343,-0.03449 0.0224,-0.05383 0.00269,-0.0064 0.00531,-0.01266 0.008,-0.01907 0.00806,-0.01935 0.015564,-0.03738 0.023621,-0.0567 0.00281,-0.0068 0.00537,-0.01282 0.00818,-0.01959 0.00806,-0.01932 0.015991,-0.03821 0.024048,-0.05752 0.0025,-0.006 0.00507,-0.01205 0.00757,-0.0181 0.00812,-0.01932 0.016235,-0.03882 0.024353,-0.05811 0.0025,-0.006 0.00482,-0.01157 0.00739,-0.01758 0.00806,-0.01932 0.019287,-0.04596 0.027344,-0.06525 0.00128,-0.003 0.00244,-0.0057 0.00372,-0.0088 0.010803,-0.02573 0.01947,-0.04633 0.030273,-0.07205 4.883e-4,-0.0011 0.0011,-0.0026 0.00159,-0.0037 1.0400391,-2.469452 2.1666263,-4.89093 3.3779293,-7.264649 7.33e-4,-0.0014 0.0013,-0.0025 0.002,-0.004 0.01263,-0.02472 0.02222,-0.04352 0.03485,-0.06824 0.0015,-0.0029 0.0026,-0.005 0.004,-0.0079 0.01105,-0.02161 0.02148,-0.04193 0.03253,-0.06354 0.0022,-0.0043 0.0042,-0.0082 0.0064,-0.01254 0.01111,-0.02161 0.02118,-0.04129 0.03229,-0.0629 0.0013,-0.0025 0.0029,-0.0056 0.0041,-0.0081 0.01105,-0.02161 0.02222,-0.0433 0.03333,-0.06491 0.0017,-0.0033 0.0033,-0.0064 0.0049,-0.0096 0.01111,-0.02161 0.02234,-0.04337 0.03345,-0.06494 0.0013,-0.0025 0.0026,-0.005 0.0038,-0.0075 0.01111,-0.02161 0.02118,-0.04105 0.03229,-0.06262 0.0023,-0.0043 0.0043,-0.0083 0.0065,-0.01263 0.0127,-0.02466 0.02191,-0.04251 0.03467,-0.06714 5.5e-4,-0.0011 0.0015,-0.0028 0.002,-0.0039 0.01276,-0.02466 0.02319,-0.04483 0.03595,-0.06946 9.16e-4,-0.0018 0.0014,-0.0027 0.0023,-0.0045 0.03827,-0.07391 0.07617,-0.146882 0.114624,-0.220704 1.83e-4,-3.66e-4 7.32e-4,-0.0014 9.15e-4,-0.0018 0.01282,-0.02463 0.02289,-0.04388 0.03571,-0.06848 0.0034,-0.0065 0.0071,-0.01364 0.0105,-0.02011 0.0081,-0.01538 0.01904,-0.03644 0.0271,-0.05182 0.0045,-0.0086 0.009,-0.01721 0.01349,-0.02585 0.0081,-0.01535 0.01453,-0.02777 0.02258,-0.04312 0.0056,-0.0108 0.01111,-0.02118 0.01672,-0.03198 0.0081,-0.01535 0.01355,-0.02582 0.02161,-0.04117 0.0055,-0.01044 0.01068,-0.02042 0.01617,-0.03082 0.0065,-0.0123 0.01379,-0.02631 0.02026,-0.03857 0.0059,-0.01114 0.01227,-0.02332 0.01813,-0.03446 0.0064,-0.01227 0.01318,-0.02512 0.01965,-0.03741 0.0062,-0.01184 0.01239,-0.02347 0.01862,-0.03534 0.0065,-0.01227 0.01105,-0.0209 0.01752,-0.03317 0.0068,-0.01291 0.01349,-0.02567 0.02032,-0.03857 0.0065,-0.01227 0.01172,-0.02219 0.01819,-0.03442 0.0065,-0.01221 0.01288,-0.02435 0.01935,-0.03656 0.0048,-0.0092 0.01251,-0.02365 0.01733,-0.03284 0.0068,-0.01291 0.01379,-0.02606 0.02063,-0.03897 0.0065,-0.01224 0.0092,-0.0173 0.01569,-0.02954 0.0076,-0.01434 0.01556,-0.02936 0.02313,-0.04367 0.0033,-0.0061 0.0065,-0.01218 0.0097,-0.01828 0.0095,-0.01791 0.01874,-0.03525 0.02826,-0.05316 0.0016,-0.0031 0.0036,-0.0067 0.0052,-0.0098 0.09582,-0.180206 0.192444,-0.360687 0.289246,-0.540283 0,0 4.88e-4,-8.24e-4 4.88e-4,-8.24e-4 0.837524,-1.553955 1.711182,-3.085205 2.620239,-4.593139 z m 26.340393,-29.813477 8.035157,10.21936 c -4.614747,3.62854 -8.926636,7.700013 -12.815857,12.101319 l -9.741577,-8.608277 c 1.434143,-1.622863 2.915466,-3.203308 4.441772,-4.738708 0.0017,-0.0017 0.0029,-0.003 0.0047,-0.0047 0.01697,-0.01703 0.0365,-0.03674 0.05347,-0.05377 0.0015,-0.0015 0.0029,-0.0029 0.0043,-0.0043 0.01941,-0.01947 0.0321,-0.03217 0.05151,-0.05164 0.0037,-0.0037 0.0078,-0.0078 0.01147,-0.01154 0.01453,-0.01459 0.03034,-0.03039 0.04492,-0.04498 0.0051,-0.0052 0.0105,-0.01056 0.01569,-0.01575 0.01459,-0.01459 0.02545,-0.02551 0.04004,-0.0401 0.0063,-0.0063 0.01239,-0.01233 0.01874,-0.01868 0.01459,-0.01459 0.02466,-0.02466 0.03925,-0.03925 0.006,-0.006 0.01184,-0.01184 0.01788,-0.01782 0.01459,-0.01459 0.02478,-0.02478 0.03943,-0.03937 0.006,-0.006 0.01184,-0.01178 0.01788,-0.01782 0.01459,-0.01453 0.02484,-0.02478 0.03943,-0.03931 0.0061,-0.006 0.0127,-0.01263 0.01874,-0.01862 0.01221,-0.01215 0.02496,-0.0249 0.03717,-0.03699 0.0069,-0.0069 0.01367,-0.01361 0.02057,-0.02045 0.01221,-0.01215 0.02649,-0.02637 0.0387,-0.03845 0.006,-0.006 0.01215,-0.01202 0.01819,-0.01807 0.01221,-0.01208 0.02722,-0.02698 0.03943,-0.03906 0.006,-0.006 0.01196,-0.0119 0.01801,-0.01788 0.01221,-0.01208 0.02795,-0.02771 0.04016,-0.03979 0.0061,-0.006 0.01147,-0.01135 0.01758,-0.01733 0.01221,-0.01208 0.02985,-0.02954 0.04205,-0.04163 0.0049,-0.0049 0.01001,-0.0099 0.01495,-0.01477 0.01709,-0.01691 0.02899,-0.02869 0.04614,-0.04559 0.0038,-0.0037 0.0079,-0.0078 0.0116,-0.01147 0.01715,-0.01691 0.03491,-0.03436 0.05206,-0.05127 0.0017,-0.0017 0.0039,-0.0038 0.0056,-0.0056 0.01959,-0.01929 0.03796,-0.03741 0.05756,-0.0567 0.0056,-0.0054 0.0105,-0.01025 0.01599,-0.01569 0.01471,-0.01446 0.02686,-0.02637 0.04156,-0.04083 0.0084,-0.0083 0.0174,-0.01709 0.02582,-0.02533 0.0098,-0.0096 0.02063,-0.02032 0.03046,-0.02997 0.01044,-0.01025 0.02081,-0.02032 0.03125,-0.03058 0.0074,-0.0073 0.01843,-0.01813 0.02582,-0.02533 0.01074,-0.0105 0.02197,-0.02155 0.03278,-0.03204 0.0073,-0.0072 0.01685,-0.01648 0.02417,-0.02368 0.0108,-0.01056 0.0213,-0.02081 0.03204,-0.03131 0.0098,-0.0096 0.01575,-0.01538 0.02557,-0.02502 0.01044,-0.01019 0.02142,-0.02087 0.03186,-0.03113 0.0074,-0.0072 0.01855,-0.01807 0.02594,-0.02527 0.01019,-0.0099 0.02026,-0.01978 0.03046,-0.02966 0.0074,-0.0072 0.01917,-0.01868 0.02655,-0.02588 0.01074,-0.0105 0.02094,-0.02039 0.03174,-0.03088 0.0074,-0.0072 0.01886,-0.01837 0.02625,-0.02557 0.0099,-0.0096 0.02002,-0.01941 0.02991,-0.02905 0.0099,-0.0096 0.01715,-0.01666 0.02704,-0.02624 0.0108,-0.0105 0.02216,-0.02154 0.03296,-0.03198 0.0074,-0.0072 0.01563,-0.01514 0.02301,-0.02234 0.01111,-0.01074 0.02277,-0.0221 0.03387,-0.03284 0.0074,-0.0072 0.01605,-0.01556 0.02344,-0.02271 0.01172,-0.01135 0.02325,-0.02252 0.03497,-0.03387 0.0074,-0.0071 0.01416,-0.01367 0.02161,-0.02087 0.01172,-0.01129 0.02356,-0.02277 0.03528,-0.03406 0.0074,-0.0072 0.01404,-0.01361 0.02142,-0.02075 0.01264,-0.01215 0.02527,-0.02441 0.0379,-0.03656 0.0049,-0.0048 0.0099,-0.0095 0.01483,-0.01428 0.01404,-0.01355 0.02832,-0.02734 0.04242,-0.04089 0.0049,-0.0048 0.008,-0.0077 0.01294,-0.01245 0.0152,-0.01465 0.02991,-0.02875 0.0451,-0.04346 0.0025,-0.0024 0.0013,-0.0013 0.0038,-0.0037 0.0918,-0.08826 0.18335,-0.176026 0.275452,-0.263977 0,0 0.0035,-0.0034 0.0035,-0.0034 0.03558,-0.034 0.0708,-0.06757 0.106445,-0.101502 0.0024,-0.0024 0.0057,-0.0054 0.0082,-0.0078 0.01624,-0.01544 0.03216,-0.03058 0.04834,-0.04602 0.0025,-0.0023 0.0061,-0.0057 0.0086,-0.0081 0.01471,-0.01404 0.02991,-0.0285 0.04468,-0.04248 0.005,-0.0048 0.0098,-0.0093 0.01483,-0.0141 0.01447,-0.01373 0.02862,-0.02716 0.04309,-0.04089 0.0025,-0.0024 0.01099,-0.01038 0.01349,-0.01276 0.01385,-0.01318 0.0282,-0.02673 0.04205,-0.03992 0.0075,-0.0071 0.01056,-0.0099 0.01801,-0.01703 0.013,-0.01233 0.02624,-0.02484 0.03925,-0.03711 0.005,-0.0048 0.0127,-0.01202 0.0177,-0.01679 0.01331,-0.01257 0.02637,-0.0249 0.03967,-0.03747 0.0075,-0.0071 0.01202,-0.01135 0.01953,-0.01837 0.013,-0.01233 0.02618,-0.02472 0.03918,-0.03705 0.005,-0.0047 0.01074,-0.01013 0.01575,-0.01483 0.01453,-0.01367 0.02911,-0.02747 0.04364,-0.04114 0.005,-0.0047 0.0071,-0.0067 0.01208,-0.01135 0.01538,-0.01453 0.0307,-0.02887 0.04608,-0.0434 0.0025,-0.0023 0.0074,-0.007 0.0099,-0.0093 0.01575,-0.01477 0.03155,-0.02966 0.0473,-0.04443 0.0025,-0.0023 0.0084,-0.0079 0.01093,-0.01025 0.01599,-0.01502 0.03217,-0.03015 0.04816,-0.04523 0.0025,-0.0023 -0.0014,0.0013 0.0012,-10e-4 0.132019,-0.123779 0.264282,-0.247192 0.396972,-0.370361 0,0 0.0023,-0.0021 0.0023,-0.0021 0.01819,-0.01691 0.03552,-0.03302 0.05371,-0.04987 0,0 0.004,-0.0037 0.004,-0.0037 0.01727,-0.01605 0.03424,-0.03174 0.05151,-0.04779 0.0026,-0.0023 0.0042,-0.0038 0.0068,-0.0062 0.01642,-0.0152 0.03296,-0.03052 0.04944,-0.04572 0.005,-0.0046 0.0043,-0.004 0.0093,-0.0087 0.01526,-0.0141 0.03076,-0.02844 0.04602,-0.04254 0.0025,-0.0023 0.0108,-0.0099 0.01331,-0.01227 0.01556,-0.01434 0.03082,-0.02838 0.04639,-0.04273 0.0025,-0.0024 0.0079,-0.0073 0.01044,-0.0096 0.01611,-0.01489 0.03235,-0.02985 0.04852,-0.04468 0.0025,-0.0024 0.0059,-0.0055 0.0084,-0.0078 0.01678,-0.01544 0.03357,-0.03088 0.05035,-0.04627 0.0025,-0.0024 0.0046,-0.0043 0.0071,-0.0067 0.01648,-0.01514 0.03302,-0.03033 0.0495,-0.04547 0.0026,-0.0023 0.0076,-0.0069 0.01007,-0.0092 0.01617,-0.01483 0.03235,-0.02966 0.04852,-0.0445 0.0026,-0.0023 0.0065,-0.0059 0.009,-0.0082 0.01654,-0.01514 0.03296,-0.03015 0.04944,-0.04529 0.0025,-0.0023 0.0046,-0.0041 0.0071,-0.0065 0.187622,-0.171691 0.376282,-0.3432 0.565064,-0.51361 0.0026,-0.0023 0.0082,-0.0074 0.01074,-0.0097 0.01544,-0.01385 0.03113,-0.02808 0.04657,-0.04193 0.0051,-0.0046 0.007,-0.0063 0.01208,-0.01086 0.01569,-0.01422 0.03168,-0.02863 0.04742,-0.04279 0.0051,-0.0046 0.0059,-0.0052 0.01099,-0.0098 0.0163,-0.01471 0.03265,-0.02942 0.04901,-0.04407 0.0026,-0.0023 0.0062,-0.0056 0.0087,-0.0079 0.01605,-0.0144 0.03204,-0.02875 0.04809,-0.04315 0.0051,-0.0046 0.0079,-0.0071 0.01306,-0.01172 0.01483,-0.01331 0.0296,-0.02655 0.04449,-0.03986 0.0051,-0.0046 0.0099,-0.0089 0.01501,-0.01349 0.01459,-0.01306 0.02972,-0.02661 0.04425,-0.03967 0.0026,-0.0023 0.01196,-0.01062 0.01453,-0.01294 0.01514,-0.01355 0.03015,-0.02698 0.04535,-0.04053 0.0051,-0.0046 0.0071,-0.0064 0.01227,-0.01099 0.0152,-0.01355 0.03101,-0.02771 0.0462,-0.04126 0.0051,-0.0046 0.0093,-0.0083 0.0144,-0.01288 0.0152,-0.01355 0.03046,-0.02716 0.04565,-0.04071 0.0026,-0.0023 0.007,-0.0062 0.0095,-0.0084 0.01672,-0.01489 0.03363,-0.03003 0.05035,-0.04486 0,0 0.0053,-0.0048 0.0053,-0.0048 0.111267,-0.09894 0.223327,-0.198242 0.334961,-0.296753 0.0026,-0.0023 0.01031,-0.0091 0.01288,-0.01135 0.01495,-0.01318 0.02966,-0.02619 0.04462,-0.03937 0.0052,-0.0045 0.0095,-0.0084 0.01465,-0.01288 0.01434,-0.01263 0.02869,-0.02527 0.04303,-0.0379 0.0052,-0.0045 0.01178,-0.01032 0.01691,-0.01489 0.01343,-0.01178 0.02704,-0.02374 0.04047,-0.03558 0.0078,-0.0068 0.0127,-0.01111 0.02045,-0.01788 0.01251,-0.01105 0.02496,-0.02191 0.03748,-0.03296 0.0078,-0.0068 0.01465,-0.01282 0.0224,-0.01959 0.01312,-0.01154 0.02594,-0.02277 0.03906,-0.0343 0.0078,-0.0068 0.01331,-0.0116 0.02106,-0.01837 0.0119,-0.0105 0.02399,-0.02106 0.03595,-0.03149 0.0078,-0.0068 0.01813,-0.01587 0.02594,-0.0227 0.01129,-0.0099 0.02264,-0.01977 0.03393,-0.02966 0.01038,-0.0091 0.01691,-0.01477 0.02728,-0.0238 0.01013,-0.0089 0.021,-0.01831 0.03107,-0.02716 0.01038,-0.009 0.01947,-0.01697 0.02985,-0.026 0.01074,-0.0093 0.02148,-0.01874 0.03223,-0.02814 0.01038,-0.009 0.01788,-0.01556 0.02826,-0.0246 0.01013,-0.0088 0.02063,-0.01788 0.03076,-0.02673 0.01038,-0.009 0.01959,-0.01709 0.03003,-0.02606 0.01074,-0.0094 0.02112,-0.01843 0.03186,-0.02777 0.01038,-0.009 0.01898,-0.01642 0.02936,-0.02545 0.0098,-0.0085 0.01965,-0.01709 0.02948,-0.02557 0.01038,-0.009 0.02197,-0.01904 0.03235,-0.02808 0.0098,-0.0085 0.01959,-0.01697 0.02942,-0.02551 0.01044,-0.009 0.02527,-0.02185 0.03564,-0.03082 0.0077,-0.0067 0.01538,-0.01331 0.02307,-0.01996 0.01563,-0.01349 0.02832,-0.02447 0.04388,-0.03796 0.0059,-0.0051 0.01147,-0.0099 0.01733,-0.01495 0.08325,-0.0719 0.163452,-0.14093 0.246948,-0.212585 0.0018,-0.0016 0.004,-0.0034 0.0058,-0.005 0.01825,-0.01569 0.0387,-0.0332 0.05701,-0.04889 0.0015,-0.0013 0.0027,-0.0024 0.0043,-0.0037 0.02094,-0.01788 0.03491,-0.02985 0.05579,-0.04773 0.0043,-0.0037 0.0085,-0.0073 0.01288,-0.01105 0.01831,-0.01563 0.03168,-0.0271 0.04999,-0.04273 0.0034,-0.0029 0.0073,-0.0062 0.01062,-0.0091 0.01831,-0.01563 0.03339,-0.0285 0.0517,-0.04413 0.0034,-0.0029 0.0064,-0.0054 0.0098,-0.0084 0.01831,-0.01563 0.03448,-0.02942 0.0528,-0.04504 0.0034,-0.0029 0.0064,-0.0054 0.0098,-0.0083 0.01575,-0.01343 0.03583,-0.03052 0.05151,-0.04388 0.004,-0.0034 0.0074,-0.0063 0.01141,-0.0097 0.01575,-0.01337 0.03656,-0.03107 0.05231,-0.04443 0.0027,-0.0024 0.006,-0.0051 0.0089,-0.0075 0.01837,-0.01556 0.03686,-0.03131 0.05524,-0.04687 0.0019,-0.0016 0.0039,-0.0034 0.0058,-0.0049 0.021,-0.01776 0.03772,-0.03198 0.05872,-0.04974 9.16e-4,-7.94e-4 0.0021,-0.0018 0.003,-0.0026 0.021,-0.01776 0.03827,-0.03241 0.05933,-0.05017 0.0012,-10e-4 0.0024,-0.0021 0.0037,-0.0031 1.000427,-0.845947 2.016724,-1.674682 3.047302,-2.485046 z M 77.266113,4.9526367 81.129883,17.365173 c -5.592285,1.740723 -11.060669,4.009888 -16.253479,6.744324 l -6.05719,-11.502563 c 1.462402,-0.770142 2.944763,-1.508484 4.44519,-2.213746 0.0031,-0.0015 0.0038,-0.0018 0.007,-0.0033 0.02093,-0.0098 0.04175,-0.01959 0.06262,-0.02936 0.0032,-0.0015 0.0054,-0.0025 0.0085,-0.004 0.02057,-0.0096 0.04114,-0.01923 0.06165,-0.02887 0.0032,-0.0015 0.007,-0.0032 0.01013,-0.0048 0.02094,-0.0098 0.04272,-0.01996 0.06366,-0.02972 0,0 0.0053,-0.0025 0.0053,-0.0025 0.0213,-0.0099 0.04211,-0.01965 0.06342,-0.0296 0.0031,-0.0015 0.0074,-0.0035 0.01056,-0.0049 0.02057,-0.0096 0.04071,-0.01898 0.06128,-0.02857 0.0032,-0.0015 0.0057,-0.0026 0.0089,-0.0041 0.02057,-0.0096 0.04163,-0.01941 0.0622,-0.02893 0.0032,-0.0015 0.0061,-0.0029 0.0093,-0.0043 0.02094,-0.0098 0.04236,-0.01965 0.06335,-0.02942 0,0 0.0038,-0.0018 0.0038,-0.0018 0.02203,-0.01025 0.04486,-0.02081 0.06696,-0.03107 0.0032,-0.0015 7.93e-4,-3.05e-4 0.0039,-0.0018 0.115906,-0.05365 0.231445,-0.106934 0.347595,-0.1602176 0.0031,-0.0014 -6.1e-5,6.1e-5 0.0031,-0.0014 0.01953,-0.00897 0.03839,-0.017639 0.05792,-0.02655 0.0063,-0.00293 0.0093,-0.00427 0.01563,-0.00714 0.0177,-0.00812 0.0354,-0.016235 0.0531,-0.024292 0.0063,-0.00293 0.01373,-0.00629 0.02008,-0.00922 0.01624,-0.00739 0.0329,-0.015015 0.04913,-0.0224 0.0095,-0.00439 0.01514,-0.00696 0.02466,-0.011291 0.01624,-0.00739 0.03272,-0.014893 0.04895,-0.022278 0.0095,-0.00433 0.01337,-0.0061 0.02289,-0.010437 0.01624,-0.00739 0.03327,-0.015137 0.0495,-0.022522 0.0063,-0.00287 0.01703,-0.00775 0.02338,-0.01062 0.0166,-0.00751 0.03271,-0.014831 0.04932,-0.0224 0.0095,-0.00427 0.01422,-0.00641 0.02374,-0.010742 0.01624,-0.00739 0.03211,-0.014587 0.0484,-0.021912 0.0063,-0.00287 0.0166,-0.00751 0.02295,-0.010376 0.01733,-0.00787 0.0354,-0.016052 0.0528,-0.023926 0.0063,-0.00287 0.0088,-0.00397 0.0152,-0.00684 0.01886,-0.00854 0.03723,-0.016846 0.05609,-0.02533 0.0063,-0.00287 0.01117,-0.005 0.01752,-0.00787 0.01886,-0.00854 0.03699,-0.016724 0.05591,-0.025207 0.0063,-0.00287 0.0065,-0.00293 0.01288,-0.0058 0.01959,-0.00879 0.03857,-0.017334 0.05817,-0.026184 0.0032,-0.0014 0.01233,-0.00555 0.0155,-0.00696 0.06299,-0.028259 0.126526,-0.056763 0.189514,-0.0849 0.0032,-0.0014 0.0073,-0.00323 0.01044,-0.00464 0.01556,-0.00696 0.03211,-0.014343 0.04767,-0.021301 0.0095,-0.00421 0.01758,-0.00781 0.02716,-0.012085 0.01556,-0.00696 0.03119,-0.013916 0.04675,-0.020813 0.0095,-0.00427 0.0155,-0.00696 0.02509,-0.011169 0.01556,-0.00696 0.03064,-0.013672 0.0462,-0.020569 0.01276,-0.00568 0.01648,-0.00732 0.02918,-0.012939 0.01373,-0.0061 0.0271,-0.012024 0.04083,-0.018127 0.0096,-0.00427 0.02393,-0.01062 0.03351,-0.014832 0.013,-0.0058 0.0257,-0.011413 0.0387,-0.017151 0.0127,-0.00568 0.02399,-0.010681 0.03674,-0.016296 0.01263,-0.00555 0.02545,-0.01123 0.03809,-0.016846 0.01276,-0.00562 0.01953,-0.00861 0.03229,-0.014221 0.01447,-0.00641 0.02924,-0.012939 0.0437,-0.019287 0.0096,-0.00421 0.01935,-0.00854 0.02893,-0.012756 0.0152,-0.00671 0.03009,-0.013245 0.04535,-0.019958 0.0095,-0.00421 0.01727,-0.00763 0.02686,-0.011841 0.01526,-0.00665 0.03058,-0.013428 0.04584,-0.020142 0.0096,-0.00421 0.01917,-0.00842 0.02875,-0.012573 0.01526,-0.00671 0.03046,-0.013367 0.04572,-0.020081 0.0096,-0.00421 0.0127,-0.00555 0.02228,-0.00977 0.01709,-0.00745 0.03509,-0.015381 0.05225,-0.022827 0.0063,-0.00281 0.0078,-0.00348 0.01422,-0.00623 0.08929,-0.039063 0.178772,-0.078064 0.268249,-0.1168213 0,0 0.0056,-0.0025 0.0056,-0.0025 0.01941,-0.00842 0.03839,-0.016602 0.0578,-0.025024 0.0064,-0.00275 0.0096,-0.00415 0.01599,-0.00696 0.01752,-0.00757 0.03455,-0.014954 0.05212,-0.022522 0.0063,-0.00275 0.0155,-0.00671 0.02185,-0.00946 0.01715,-0.00745 0.03485,-0.015076 0.052,-0.022461 0.0064,-0.00275 0.01459,-0.00629 0.021,-0.00903 0.01715,-0.00739 0.03473,-0.015015 0.05194,-0.0224 0.0096,-0.00415 0.01135,-0.00488 0.021,-0.00903 0.01715,-0.00739 0.03491,-0.015015 0.05206,-0.0224 0.0064,-0.00275 0.0163,-0.00702 0.02271,-0.00977 0.01605,-0.0069 0.03216,-0.013794 0.04822,-0.020691 0.0096,-0.00415 0.01617,-0.00696 0.02576,-0.011047 0.01678,-0.0072 0.03345,-0.014343 0.05029,-0.021545 0.0096,-0.00415 0.01129,-0.00482 0.02087,-0.00897 0.01758,-0.00751 0.0354,-0.015137 0.05292,-0.022644 0.0064,-0.00269 0.01123,-0.00476 0.01764,-0.00751 0.01947,-0.0083 0.03857,-0.016479 0.05804,-0.02478 0.0032,-0.00134 0.006,-0.00256 0.0093,-0.00391 0.0213,-0.00909 0.04254,-0.018127 0.06384,-0.027222 0,0 0.0047,-0.00195 0.0047,-0.00195 0.188843,-0.080383 0.377686,-0.1600952 0.567078,-0.2394409 0.0032,-0.00134 0.0035,-0.00146 0.0068,-0.00281 0.02179,-0.00909 0.04297,-0.018005 0.0647,-0.0271 0.0032,-0.00134 0.005,-0.00208 0.0082,-0.00342 0.02136,-0.00891 0.04254,-0.017761 0.0639,-0.026672 0.0032,-0.00134 0.006,-0.0025 0.0093,-0.00385 0.02179,-0.00909 0.04352,-0.018188 0.06531,-0.027222 0.0032,-0.00134 0.0019,-7.935e-4 0.0051,-0.00214 0.02252,-0.0094 0.04468,-0.018616 0.06726,-0.027954 0,0 0.0057,-0.00244 0.0057,-0.00244 0.02295,-0.00952 0.04517,-0.018738 0.06805,-0.028198 0,0 0.0014,-6.104e-4 0.0014,-6.104e-4 3.05365,-1.2658691 6.17688,-2.3982544 9.36206,-3.3897705 z M 110,0 v 13 c -3.896,0 -7.81799,0.232788 -11.657227,0.692017 L 96.79895,0.78399658 c 0.167175,-0.0200195 0.334534,-0.0396118 0.502014,-0.0588989 0.0036,-3.6621e-4 0.01453,-0.001648 0.01813,-0.002075 0.0257,-0.00293 0.05121,-0.005859 0.07684,-0.008789 0.0108,-0.001221 0.01715,-0.001953 0.02795,-0.003174 0.02167,-0.002441 0.04321,-0.004883 0.06488,-0.007385 0.0108,-0.001221 0.02478,-0.002808 0.03558,-0.004028 0.01849,-0.002075 0.03699,-0.00415 0.05548,-0.006226 0.0108,-0.001221 0.03192,-0.003601 0.04272,-0.004822 0.01697,-0.001892 0.03363,-0.003723 0.05054,-0.005615 0.03241,-0.003601 0.0636,-0.00708 0.09601,-0.0106812 0.01111,-0.001221 0.02246,-0.002441 0.03357,-0.003723 0.02161,-0.00238 0.03888,-0.004272 0.06049,-0.006653 0.01062,-0.00116 0.02112,-0.002319 0.03168,-0.003479 0.01807,-0.001953 0.04437,-0.004822 0.06238,-0.006775 0.0095,-0.001038 0.01868,-0.002014 0.02826,-0.003052 0.02161,-0.00238 0.04364,-0.004761 0.06525,-0.00708 0.0077,-8.5449e-4 0.01581,-0.001709 0.0235,-0.002563 0.02527,-0.002686 0.04596,-0.004944 0.07123,-0.007629 0.0021,-2.4414e-4 0.0042,-4.8829e-4 0.0063,-6.7139e-4 2.826596,-0.30285645 5.678226,-0.49804688 8.564756,-0.58258057 0.0314,-0.0014038 0.0559,-0.0016479 0.0866,-0.0025024 0.004,-1.2207e-4 0.007,-2.4414e-4 0.0107,-3.0517e-4 0.11048,-0.0031738 0.23053,-0.0064087 0.34113,-0.0092163 0.0275,-8.5449e-4 0.0519,-0.0012817 0.0799,-0.0020142 0.0292,-4.8828e-4 0.0613,-0.0014648 0.0905,-0.0021973 0.0305,-6.7139e-4 0.0643,-0.0014648 0.0945,-0.0021973 0.0329,-5.4932e-4 0.0607,-0.0013428 0.0933,-0.0020752 0.004,-1.2207e-4 0.007,-1.831e-4 0.011,-2.4414e-4 0.0774,-0.001709 0.15857,-0.003418 0.23608,-0.0050049 0.0307,-3.6621e-4 0.0565,-0.0010986 0.087,-0.001709 0.0339,-6.1035e-4 0.0622,-0.0010986 0.0959,-0.00177 0.0292,-5.4931e-4 0.065,-0.0012207 0.0945,-0.001709 0.0331,-4.8828e-4 0.0629,-0.0010376 0.0959,-0.001648 0.0533,-6.7139e-4 0.0991,-0.001648 0.15284,-0.0024414 0.0282,-3.0517e-4 0.055,-7.3242e-4 0.0829,-0.0012207 0.0331,-3.6621e-4 0.0608,-7.9346e-4 0.0939,-0.0013428 0.0309,-4.2725e-4 0.0647,-8.545e-4 0.0956,-0.00122071 0.0316,-4.8828e-4 0.066,-8.5449e-4 0.0976,-0.0012207 0.0325,-4.8828e-4 0.0636,-8.5449e-4 0.096,-0.00109863 0.0421,-5.4932e-4 0.0834,-9.1553e-4 0.12561,-0.00134278 0.0328,-3.6621e-4 0.0725,-7.3242e-4 0.1051,-9.7656e-4 0.03,-3.0517e-4 0.0692,-7.3242e-4 0.0995,-8.5449e-4 0.033,-3.6621e-4 0.0662,-6.1035e-4 0.0994,-7.9346e-4 0.0304,-1.831e-4 0.065,-4.8828e-4 0.0954,-6.7138e-4 0.035,-1.8311e-4 0.0632,-4.2725e-4 0.0983,-6.1036e-4 0.0432,-1.831e-4 0.0818,-3.6621e-4 0.12506,-6.1035e-4 0.0378,-1.220675e-4 0.0676,-1.8310266e-4 0.10517,-4.2724328e-4 0.0358,-1.2207031e-4 0.0638,-1.8310547e-4 0.0996,-3.0517578e-4 0.0315,0 0.068,-1.8310547e-4 0.0997,-1.8310547e-4 0.0325,-6.103516e-5 0.0647,-1.22070314e-4 0.0972,-1.22070314e-4 C 109.93494,0 109.96753,0 110,0 c 0,0 0,0 0,0 z"
         stroke="none"
         fill="#cdad7d"
         id="path9" />
    </g>
  </g>
</svg>
