<?xml version="1.0" encoding="UTF-8" standalone="no"?>
<svg xmlns="http://www.w3.org/2000/svg" xmlns:xlink="http://www.w3.org/1999/xlink" fill="#cdad7d" height="187.7" preserveAspectRatio="xMidYMid meet" version="1" viewBox="-0.0 0.0 139.6 187.7" width="139.6" zoomAndPan="magnify"><g id="change1_1"><path d="M0,12.79V153.36a12.79,12.79,0,0,0,12.78,12.78h8.78v8.78A12.79,12.79,0,0,0,34.34,187.7h92.49a12.79,12.79,0,0,0,12.78-12.78V34.35a12.8,12.8,0,0,0-12.78-12.79h-8.78V12.79A12.8,12.8,0,0,0,105.27,0H12.78A12.8,12.8,0,0,0,0,12.79ZM126.83,29.56a4.79,4.79,0,0,1,4.78,4.79V174.92a4.78,4.78,0,0,1-4.78,4.78H34.34a4.78,4.78,0,0,1-4.78-4.78v-8.78h75.71a12.79,12.79,0,0,0,12.78-12.78V29.56ZM110.05,12.79V153.36a4.78,4.78,0,0,1-4.78,4.78H12.78A4.78,4.78,0,0,1,8,153.36V12.79A4.79,4.79,0,0,1,12.78,8h92.49A4.79,4.79,0,0,1,110.05,12.79Z" fill="inherit"/><path d="M54.57 83.41H92.58V91.41H54.57z" fill="inherit"/><path d="M25.47 83.41H43.879999999999995V91.41H25.47z" fill="inherit"/><path d="M25.47 100.63H63.48V108.63H25.47z" fill="inherit"/><path d="M74.17 100.63H92.58V108.63H74.17z" fill="inherit"/><path d="M54.57 117.85H92.58V125.85H54.57z" fill="inherit"/><path d="M25.47 117.85H43.879999999999995V125.85H25.47z" fill="inherit"/><path d="M25.47 135.08H63.48V143.08H25.47z" fill="inherit"/><path d="M74.17 135.08H92.58V143.08H74.17z" fill="inherit"/><path d="M37.77,66.37H80.28V44l16.88-9.16L59,14.12,20.89,34.82,37.77,44Zm34.51-8H45.77v-10L59,55.51l13.26-7.19ZM59,23.22l21.37,11.6L59,46.41,37.66,34.82Z" fill="inherit"/></g></svg>