<svg id="Mv2JAKndQhYZaWf0" viewBox="0 0 117.0826 64.7873" preserveAspectRatio="none" style="overflow:hidden;top:0%;left:0%;background:url('');width:100%;position:absolute;opacity:1.0;height:100%;"><g id="wdXoTahdSO201kMv" style="transform:scale(1, 1);"><g id="T7rmXBHhZDLYBbPs" style="clip-path:url(#fKOmNOE6L0iPzmpZ);"><clipPath id="fKOmNOE6L0iPzmpZ"><path d="M10.07153668,0.0 L107.01103626,0.0 C109.68217386,0.0 112.24390863,1.06110528 114.13268814,2.9498848 116.02146766,4.83866431 117.08257294,7.40039907 117.08257294,10.07153668 L117.08257294,54.71571002 C117.08257293,60.27806614 112.57339237000001,64.7872467 107.01103626,64.7872467 L10.07153668,64.7872467 C7.40039907,64.7872467 4.83866431,63.726141420000005 2.9498848,61.83736191 1.06110528,59.94858239 0.0,57.38684763 0.0,54.71571002 L0.0,10.07153668 C0.0,7.40039907 1.06110528,4.83866431 2.9498848,2.9498848 4.83866431,1.06110528 7.40039907,0.0 10.07153668,0.0 Z"></path></clipPath><path id="NOb3mPQlPWmAnQXe" d="M10.07153668,0.0 L107.01103626,0.0 C109.68217386,0.0 112.24390863,1.06110528 114.13268814,2.9498848 116.02146766,4.83866431 117.08257294,7.40039907 117.08257294,10.07153668 L117.08257294,54.71571002 C117.08257293,60.27806614 112.57339237000001,64.7872467 107.01103626,64.7872467 L10.07153668,64.7872467 C7.40039907,64.7872467 4.83866431,63.726141420000005 2.9498848,61.83736191 1.06110528,59.94858239 0.0,57.38684763 0.0,54.71571002 L0.0,10.07153668 C0.0,7.40039907 1.06110528,4.83866431 2.9498848,2.9498848 4.83866431,1.06110528 7.40039907,0.0 10.07153668,0.0 Z" style="fill:none;stroke:transparent;"></path><path id="RMAqBaz1Y2asGIJk" d="M10.07153668,0.0 L107.01103626,0.0 C109.68217386,0.0 112.24390863,1.06110528 114.13268814,2.9498848 116.02146766,4.83866431 117.08257294,7.40039907 117.08257294,10.07153668 L117.08257294,54.71571002 C117.08257293,60.27806614 112.57339237000001,64.7872467 107.01103626,64.7872467 L10.07153668,64.7872467 C7.40039907,64.7872467 4.83866431,63.726141420000005 2.9498848,61.83736191 1.06110528,59.94858239 0.0,57.38684763 0.0,54.71571002 L0.0,10.07153668 C0.0,7.40039907 1.06110528,4.83866431 2.9498848,2.9498848 4.83866431,1.06110528 7.40039907,0.0 10.07153668,0.0 Z" style="fill:none;stroke:#cdad7d;stroke-linecap:butt;vector-effect:non-scaling-stroke;"></path></g></g></svg>
