<?xml version="1.0" encoding="UTF-8" standalone="no"?>
<svg
   viewBox="0 0 3333 3333"
   shape-rendering="geometricPrecision"
   text-rendering="geometricPrecision"
   image-rendering="optimizeQuality"
   fill-rule="evenodd"
   clip-rule="evenodd"
   version="1.1"
   id="svg342"
   sodipodi:docname="ln.svg"
   inkscape:version="1.2.2 (b0a8486541, 2022-12-01)"
   xmlns:inkscape="http://www.inkscape.org/namespaces/inkscape"
   xmlns:sodipodi="http://sodipodi.sourceforge.net/DTD/sodipodi-0.dtd"
   xmlns="http://www.w3.org/2000/svg"
   xmlns:svg="http://www.w3.org/2000/svg">
  <defs
     id="defs346" />
  <sodipodi:namedview
     id="namedview344"
     pagecolor="#ffffff"
     bordercolor="#000000"
     borderopacity="0.25"
     inkscape:showpageshadow="2"
     inkscape:pageopacity="0.0"
     inkscape:pagecheckerboard="0"
     inkscape:deskcolor="#d1d1d1"
     showgrid="false"
     inkscape:zoom="0.30813081"
     inkscape:cx="1664.8773"
     inkscape:cy="1664.8773"
     inkscape:window-width="2560"
     inkscape:window-height="1367"
     inkscape:window-x="0"
     inkscape:window-y="0"
     inkscape:window-maximized="1"
     inkscape:current-layer="svg342" />
  <path
     d="M1465 1354h322v165h5c45-81 155-165 318-165 340 0 403 212 403 488v561h-336v-498c0-119-2-271-175-271-175 0-202 129-202 263v506h-336V1354zM1667 0c460 0 877 187 1179 488 302 302 488 718 488 1179 0 460-187 877-488 1179-302 302-718 488-1179 488-460 0-877-187-1179-488C186 2544 0 2128 0 1667c0-460 187-877 488-1179C790 186 1206 0 1667 0zm1093 573c-280-280-666-453-1093-453S853 293 574 573c-280 280-453 666-453 1093s173 814 453 1093c280 280 666 453 1093 453s814-173 1093-453c280-280 453-666 453-1093s-173-814-453-1093zm-1528 490c0 97-78 175-175 175s-175-78-175-175 78-175 175-175 175 78 175 175zm-350 291h350v1049H882V1354z"
     id="path340" />
  <path
     style="fill:#ffffff;stroke-width:3.24537"
     d="m 1564.2707,3329.2691 c -6.2474,-0.588 -29.6141,-2.6187 -51.926,-4.512 -22.312,-1.8937 -64.567,-7.0535 -93.9001,-11.4663 C 695.95532,3204.5995 124.93332,2632.1625 19.630636,1911.0106 -1.0074306,1769.6735 -2.8336744,1601.1224 14.74849,1460.4187 44.949958,1218.7272 126.85409,989.77187 258.1575,779.99165 380.1501,585.08709 551.85373,408.78366 744.03279,281.10014 1120.6989,30.843751 1574.0258,-55.271561 2017.4575,39.196677 c 407.5978,86.834243 773.9518,330.339073 1015.2179,674.785793 268.2217,382.93023 362.2674,866.32563 257.6096,1324.11293 -94.3315,412.6191 -345.6942,777.6494 -697.9033,1013.499 -239.0191,160.0544 -516.2911,255.1693 -805.8028,276.4214 -41.113,3.0178 -194.3871,3.8821 -222.3082,1.2533 z m 181.741,-117.9899 c 314.9713,-17.5826 599.7452,-120.1839 846.491,-304.9826 335.1938,-251.0414 554.4292,-624.9988 608.8775,-1038.5834 16.3186,-123.955 16.2731,-275.5263 -0.1211,-404.0491 C 3151.2494,1071.6143 2945.5563,706.78417 2634.3018,458.0734 2346.0608,227.75169 1995.0994,109.76248 1627.5555,119.61673 1438.4859,124.68589 1266.6279,159.67908 1090.446,228.98129 1031.4332,252.19432 907.73048,314.91936 851.91091,349.93355 686.72781,453.5487 543.23081,585.33348 426.46864,740.65115 262.8162,958.34252 160.56913,1218.4285 128.1977,1499.3632 c -7.2928,63.2905 -9.97138,204.724 -5.13377,271.0726 12.1318,166.3902 46.37006,318.4105 105.60028,468.8729 38.44874,97.6711 113.36387,234.951 176.53516,323.4957 94.90592,133.0258 230.34161,268.4617 363.37359,363.3742 283.99614,202.6187 632.74504,304.3423 977.43874,285.1006 z"
     id="path367" />
  <path
     style="fill:#ffffff;stroke-width:3.24537"
     d="M 882.74197,1877.4494 V 1354.944 h 173.62753 173.6276 v 522.5054 522.5053 H 1056.3695 882.74197 Z"
     id="path369" />
  <path
     style="fill:#ffffff;stroke-width:3.24537"
     d="m 1011.5436,1229.9916 c -27.88194,-7.6645 -51.8619,-22.0874 -75.53299,-45.4298 -95.32205,-93.9982 -54.11314,-249.7509 76.32409,-288.47344 21.9648,-6.52066 64.125,-6.71872 87.8228,-0.41257 54.5019,14.50329 98.1466,54.0178 119.2032,107.92281 7.4885,19.1705 8.5726,26.6508 8.5893,59.2617 0.016,30.5473 -1.2866,40.8563 -7.1738,56.794 -19.5875,53.0275 -63.5016,94.2822 -117.1264,110.0332 -21.3508,6.2713 -69.8167,6.4313 -92.1062,0.3041 z"
     id="path371" />
  <path
     style="fill:#ffffff;stroke-width:3.24537"
     d="M 1466.9094,1877.4494 V 1354.944 h 159.0234 159.0234 v 82.7571 c 0,65.3412 0.8796,82.757 4.1797,82.757 2.2989,0 10.3392,-9.3685 17.8674,-20.8189 7.5282,-11.4504 25.9274,-32.2705 40.8871,-46.2668 73.5101,-68.7768 175.9707,-102.9635 290.8116,-97.0315 216.7455,11.1957 325.8221,105.4488 360.0173,311.0906 11.4321,68.75 13.1357,124.7834 13.1688,433.1374 l 0.032,299.3858 H 2344.7833 2177.6465 V 2115.088 c 0,-176.6508 -1.2772,-295.3138 -3.3622,-312.3674 -7.0367,-57.5551 -21.9849,-96.2232 -47.9138,-123.9433 -30.6951,-32.8155 -64.2109,-44.731 -125.8189,-44.731 -125.3256,0 -185.7817,60.696 -199.343,200.1345 -1.7069,17.5504 -3.1411,152.0292 -3.1872,298.8418 l -0.084,266.9321 h -165.5141 -165.5142 z"
     id="path373" />
</svg>
