<?xml version="1.0" encoding="UTF-8"?>
<svg id="Capa_1" data-name="Capa 1" xmlns="http://www.w3.org/2000/svg" viewBox="0 0 729.77 217">
  <defs>
    <style>
      .cls-1 {
        fill: #fff;
      }
    </style>
  </defs>
  <g>
    <path class="cls-1" d="m25.62,48.83c3.99-11.23,11.55-29.47,16.95-39.72C45.91,2.74,8.13-1.58,8.13,28.32c0,9.07-12.2,4.64-6.58-6.91,1.73-3.35,7.88-11.01,15.87-15.33C27.45.48,62.21-7.51,52.17,15.05c-2.27,4.86-10.79,20.72-15.98,32.06-12.09,25.26-43.93,110.85-25.47,135.03,4.53,5.94-5.29,11.33-8.42,2.27-9.17-26.45,11.23-102.65,23.32-135.57h0Z"/>
    <path class="cls-1" d="m46.88,136.05c-1.62,2.05-3.24,3.45-5.07,3.45-4.64,0-5.83-6.15-6.15-10.04-1.19-11.23,4.64-33.14,10.79-40.48,4.64-5.4,11.12-2.59,9.61,2.16-2.59,8.74-13.49,30.55-14.03,40.26,0,.65-.11,3.02,1.3,1.29,1.29-1.73,14.46-27.52,24.72-35.19,3.35-2.48,6.37-2.91,8.53.11,4.64,6.8-10.25,26.66,2.91,29.68,10.25,2.59,30.55-16.73,38.1-25.91,2.91-4.1,7.88-2.05,3.45,2.7-9.61,11.33-27.74,29.36-43.61,27.63-11.87-1.19-14.25-13.82-10.79-24.29.32-.86.65-1.83.32-2.16-.76-1.51-17.05,25.04-20.08,30.76v.03Z"/>
    <path class="cls-1" d="m117.58,123.74c-3.45-1.73-4.32-6.48-3.78-10.9,2.05-17.7,19.97-31.73,38-29.14,5.5.76,10.58,3.24,13.06,8.42,2.27,4.86-3.89,6.04-5.94.86-2.05-3.78-5.18-5.61-8.64-5.94-8.85-.86-19.21,9.28-23.21,19.11-.86,1.94-3.02,7.66-1.51,9.71,1.73,2.59,21.59-17.38,22.88-19.97.86-2.05,5.61-3.78,5.29,1.94,0,6.04-.86,16.84-3.13,29.9,13.06-11.55,30.33-21.8,44.04-26.34,6.91-2.59,4.75,3.24,2.16,3.78-14.68,3.45-34.76,16.73-47.49,29.79-5.18,27.09-15.87,60.99-33.25,77.61-7.23,6.91-17.7,6.69-15.11-7.45,3.45-18.89,27.96-53,40.15-68.33,3.99-13.28,7.56-31.84,8.42-36.16-4.64,3.78-20.29,29.14-31.95,23.1h.01Zm19.21,26.66c-8.1,11.55-17.38,26.34-23.75,38.75-8.96,17.59-4.21,17.38,5.61,1.84,6.91-11.12,13.06-26.01,18.13-40.59h0Z"/>
    <path class="cls-1" d="m218.61,138.53c-5.18.86-10.9-.11-14.46-4.75-5.4-7.66-.76-19.97,3.99-26.12-5.5.86-12.95-2.37-14.14-7.77-.54-2.91.65-7.02,4.86-9.61,3.13-1.73,6.91-.43,7.23,2.16.54,2.48-4.1,3.89-3.78,4.75.54,2.81,8.53,5.07,11.44,6.8,9.82,6.37-3.56,18.13-3.56,25.47,0,4.96,5.5,5.4,9.61,4.53,14.46-3.45,32.27-26.01,38.32-32.6,3.35-3.67,7.88-1.94,3.45,2.7-6.37,8.1-25.69,31.41-42.96,34.43h0Z"/>
    <path class="cls-1" d="m269.45,98.38c-4.86,14.68-1.94,20.94,4.1,22.34,10.36,2.27,30.33-10.04,38.1-19.32,2.91-4.1,7.88-2.05,3.45,2.7-9.61,11.33-27.74,22.78-43.61,21.05-13.06-1.19-17.59-17.27-11.66-28.93,5.18-4.86,11.12-2.59,9.61,2.16h0Zm2.81-13.28c-2.59,4.32-9.61,3.24-7.88-2.7,1.73-7.34,14.9-12.09,7.88,2.7Z"/>
    <path class="cls-1" d="m340.36,84.56c7.45-32.81,17.27-59.48,24.61-66.49,6.58-7.77,16.95-8.2,15.76,5.94-1.73,19.11-21.16,52.03-33.68,71.78-7.23,18.67-13.06,42.74-11.87,64.55.54,11.55,4.1,18.67,11.55,22.56,5.18,2.91-.76,8.96-7.34,3.24-4.75-4.43-7.12-13.38-7.88-25.04-.97-15.54.97-34.86,4.32-54.62-5.4,8.85-14.03,22.13-23.21,18.35-3.56-1.4-4.86-6.04-4.75-10.47.43-14.14,15.98-35.4,32.49-29.79h0Zm-19.86,21.91c-.86,2.05-2.05,7.77-.65,9.82,1.62,1.94,12.41-11.87,19.43-27.2-8.31-4.64-16.73,11.33-18.78,17.38Zm29.58-24.61c6.91-12.41,14.9-27.74,20.08-40.8,7.12-18.35,2.59-17.7-5.72-1.29-6.04,11.66-10.79,27.09-14.36,42.1h0Z"/>
  </g>
  <g>
    <path class="cls-1" d="m349.71,152.33c0-17.75,13.49-30.89,31.58-30.89,8.61,0,16.36,2.78,21.67,8.44l-2.79,2.87c-5.22-5.13-11.57-7.22-18.71-7.22-15.57,0-27.32,11.48-27.32,26.8s11.75,26.8,27.32,26.8c7.13,0,13.49-2.18,18.71-7.31l2.79,2.87c-5.31,5.66-13.05,8.53-21.67,8.53-18.1,0-31.58-13.14-31.58-30.89Z"/>
    <path class="cls-1" d="m407.13,160.07c0-13.49,9.66-23.06,22.71-23.06s22.71,9.57,22.71,23.06-9.66,23.06-22.71,23.06-22.71-9.57-22.71-23.06Zm40.98,0c0-11.4-7.83-19.14-18.27-19.14s-18.27,7.74-18.27,19.14,7.83,19.14,18.27,19.14,18.27-7.74,18.27-19.14Z"/>
    <path class="cls-1" d="m457.07,177.3l2-3.48c3.48,2.96,9.66,5.48,16.36,5.48,9.57,0,13.4-3.39,13.4-8.53,0-13.22-30.1-3.48-30.1-21.32,0-6.87,5.74-12.44,17.23-12.44,5.74,0,12.01,1.74,15.57,4.44l-2,3.48c-3.83-2.78-8.79-4.09-13.66-4.09-8.87,0-12.79,3.65-12.79,8.53,0,13.66,30.1,4,30.1,21.32,0,7.4-6.35,12.44-17.92,12.44-7.48,0-14.62-2.52-18.18-5.83h0Z"/>
    <path class="cls-1" d="m525.63,179.91c-2.26,2.17-5.92,3.22-9.31,3.22-8,0-12.35-4.7-12.35-12.35v-29.67h-8.35v-3.74h8.35v-9.92h4.35v9.92h14.44v3.74h-14.44v29.23c0,5.83,2.87,9.05,8.44,9.05,2.7,0,5.22-.87,7.05-2.52l1.83,3.04h-.01Z"/>
    <path class="cls-1" d="m568.26,153.98v28.8h-4.18v-8.09c-2.87,5.22-8.44,8.44-16.36,8.44-10.18,0-16.36-5.22-16.36-12.96,0-6.87,4.35-12.7,16.97-12.7h15.57v-3.65c0-8.44-4.61-12.96-13.49-12.96-6.26,0-11.92,2.35-15.66,5.74l-2.18-3.13c4.52-4,11.14-6.44,18.18-6.44,11.22,0,17.49,5.74,17.49,16.97l.02-.02Zm-4.35,15.4v-8.53h-15.49c-9.4,0-12.7,3.92-12.7,9.14,0,5.92,4.61,9.57,12.62,9.57s12.96-3.65,15.57-10.18h0Z"/>
    <path class="cls-1" d="m583.92,118.22h4.35v64.56h-4.35v-64.56Z"/>
    <path class="cls-1" d="m642.73,161.12h-39.07c.43,10.79,8.35,18.1,19.23,18.1,5.74,0,11.05-2.09,14.53-6.35l2.52,2.87c-4,4.87-10.27,7.39-17.14,7.39-13.75,0-23.4-9.57-23.4-23.06s9.31-23.06,21.75-23.06,21.66,9.4,21.66,22.88c0,.35-.09.78-.09,1.22h.01Zm-38.98-3.39h34.8c-.61-9.83-7.74-16.88-17.4-16.88s-16.71,6.96-17.4,16.88h0Z"/>
    <path class="cls-1" d="m647.34,177.3l2-3.48c3.48,2.96,9.66,5.48,16.36,5.48,9.57,0,13.4-3.39,13.4-8.53,0-13.22-30.1-3.48-30.1-21.32,0-6.87,5.74-12.44,17.23-12.44,5.74,0,12.01,1.74,15.57,4.44l-2,3.48c-3.83-2.78-8.79-4.09-13.66-4.09-8.88,0-12.79,3.65-12.79,8.53,0,13.66,30.1,4,30.1,21.32,0,7.4-6.35,12.44-17.92,12.44-7.48,0-14.62-2.52-18.18-5.83h-.01Z"/>
  </g>
  <g>
    <path class="cls-1" d="m703.18,127.72c-14.66,0-26.59-12.05-26.59-26.87s11.93-26.87,26.59-26.87,26.59,12.05,26.59,26.87-11.93,26.87-26.59,26.87Zm0-52.74c-14.11,0-25.59,11.6-25.59,25.87s11.48,25.87,25.59,25.87,25.59-11.6,25.59-25.87-11.48-25.87-25.59-25.87Z"/>
    <path class="cls-1" d="m697.74,110.97c0-6.13,4.36-10.41,10.37-10.41,3.26,0,6.09,1.26,7.78,3.77l-1.45,1.06c-1.49-2.08-3.77-3.06-6.32-3.06-4.83,0-8.37,3.46-8.37,8.64s3.54,8.64,8.37,8.64c2.55,0,4.83-.98,6.32-3.06l1.45,1.06c-1.69,2.47-4.52,3.77-7.78,3.77-6.01,0-10.37-4.32-10.37-10.41h0Z"/>
    <path class="cls-1" d="m698.76,90.05c.88-2.48,2.56-6.52,3.75-8.79.74-1.41-7.62-2.37-7.62,4.25,0,2.01-2.7,1.03-1.46-1.53.38-.74,1.74-2.44,3.51-3.39,2.22-1.24,9.92-3.01,7.69,1.98-.5,1.08-2.39,4.59-3.54,7.1-2.68,5.59-9.73,24.54-5.64,29.89,1,1.31-1.17,2.51-1.86.5-2.03-5.85,2.49-22.72,5.16-30.01h.01Z"/>
  </g>
</svg>