<?xml version="1.0" encoding="UTF-8" standalone="no"?>
<svg
   fill="#000000"
   height="1895.5"
   preserveAspectRatio="xMidYMid meet"
   version="1"
   viewBox="-427.8 157.8 1940.1 1895.5"
   width="1940.1"
   zoomAndPan="magnify"
   id="svg27"
   sodipodi:docname="servicio_template.svg"
   inkscape:version="1.2.2 (b0a8486541, 2022-12-01)"
   xmlns:inkscape="http://www.inkscape.org/namespaces/inkscape"
   xmlns:sodipodi="http://sodipodi.sourceforge.net/DTD/sodipodi-0.dtd"
   xmlns="http://www.w3.org/2000/svg"
   xmlns:svg="http://www.w3.org/2000/svg">
  <defs
     id="defs31" />
  <sodipodi:namedview
     id="namedview29"
     pagecolor="#ffffff"
     bordercolor="#000000"
     borderopacity="0.25"
     inkscape:showpageshadow="2"
     inkscape:pageopacity="0.0"
     inkscape:pagecheckerboard="0"
     inkscape:deskcolor="#d1d1d1"
     showgrid="false"
     inkscape:zoom="0.1915586"
     inkscape:cx="3027.7941"
     inkscape:cy="1195.4566"
     inkscape:window-width="2560"
     inkscape:window-height="1367"
     inkscape:window-x="0"
     inkscape:window-y="0"
     inkscape:window-maximized="1"
     inkscape:current-layer="svg27" />
  <g
     opacity="0.157"
     id="g11">
    <g
       id="change1_1">
      <path
         d="M-157.39377,157.77782L-168.61649,164.15356Q-212.83528,181.34747,-254.95557,160.68509L-369.7507,200.23853Q-385.43478,217.23413,-393.46875,237.22574L-427.82523,164.69847L-427.82553,340.13562L-416.9978,299.089L-395.23428,303.7505Q-383.3298,294.2372,-378.32037,294.53543L-378.48602,278.9521L-143.89142,368.44934L-99.608765,507.78973Q-78.42697,628.18744,-78.6712,707.9041Q-79.50751,826.07263,-134.8901,1092.5327Q-127.759,1117.2174,-167.712,1514.4453L-161.32587,1624.9841L-150.27661,1582.0828L-149.54727,1588.8623L-162.94662,1779.0251Q-184.9112,1845.9829,-218.53722,1859.5717L-358.8617,1905.9164Q-378.81918,1909.7491,-388.52325,1896.5526L-414.59222,1899.0461Q-423.452,1894.8771,-423.20776,1868.7769Q-409.75647,1736.6582,-408.97772,1639.2002L-420.21436,1508.8619L-411.74393,1256.3268Q-415.0461,1258.0812,-418.12375,1159.7083L-427.82632,762.4437L-427.82843,1930.4672Q-225.99187,1944.2621,-189.20203,1943.1238Q-184.35239,1951.3083,-141.65036,1865.1316Q-73.10336,1911.2168,-69.25693,1939.8995Q-30.496094,1916.2866,-32.337708,1913.8367L101.62927,1962.7618L111.484436,1963.3645L173.72424,1936.2448L280.95868,1949.4773Q369.95715,1938.9845,391.6341,1940.17Q405.47028,1935.9194,504.67456,1987.3462L576.80237,1991.7446L596.936,1980.3535L606.6357,1987.5851Q666.4356,1975.8794,695.3465,1982.2289L753.1818,1943.7346Q798.16437,1963.3966,811.5025,1991.3485L883.1611,2007.8453Q942.6114,1959.6494,969.0087,1958.2427Q1009.5672,1954.8784,1106.0288,1976.3927Q1243.7087,1961.8419,1239.1953,1969.4707Q1294.8843,1933.5408,1321.354,1937.0979Q1349.8516,1937.9475,1404.9822,1998.0963Q1418.8667,1997.1368,1457.4309,2007.2075L1477.4409,2046.6804L1500.0972,2048.396Q1493.1768,2053.263,1480.3577,1960.7384Q1447.0269,1893.954,1445.3442,1871.3737L1452.936,1823.1072L1510.4773,1701.2737Q1500.085,1667.2799,1483.471,1647.8475Q1493.0161,1651.9635,1512.2996,1613.4598Q1508.5903,1574.0092,1492.9348,1535.059Q1492.1296,1460.2311,1489.7114,1455.4823L1511.6526,1435.4862Q1506.9253,1449.858,1479.187,1291.3635L1497.8435,1242.7144Q1473.8628,1220.3168,1468.396,1199.4158Q1469.7639,1182.3827,1503.4194,1114.1987L1500.9326,1023.4475Q1438.3923,856.89594,1438.7883,872.82825Q1448.6292,837.4642,1469.6086,801.35315L1471.302,624.49603L1436.9758,591.0907Q1434.7454,590.6532,1457.6523,548.65985L1421.7234,480.86578Q1434.8103,456.72296,1431.3374,438.1385L1469.8574,381.89746L1419.3748,339.34167L1445.8501,258.9124L1425.709,219.97292L1347.3975,194.1322Q1304.6045,197.2394,1203.468,169.26439Q1103.4534,182.19032,1085.5095,178.04091L1030.1069,204.10956L955.4693,210.37389L923.7641,170.7486L902.7325,157.77927L-157.39377,157.77782 Z"
         id="path2" />
    </g>
    <g
       fill="#cdad7d"
       id="change2_1">
      <path
         d="M1512.2137,1434.9178L1511.9557,1435.1538L1511.6969,1435.3911L1511.7588,1435.3601L1511.8201,1435.3235Q1511.8807,1435.2844,1511.9408,1435.2346L1511.9999,1435.1821Q1512.059,1435.1267,1512.1165,1435.0609L1512.1742,1434.9924L1512.2307,1434.9186L1512.2139,1434.9191"
         id="path5" />
    </g>
    <g
       fill="#cdad7d"
       id="change2_5">
      <path
         d="M1500.0981,2048.3965L1500.1486,2048.4102Q1500.1989,2048.423,1500.249,2048.4338L1500.2994,2048.4438L1500.3502,2048.4526L1500.4001,2048.4602L1500.4504,2048.4663L1500.5006,2048.4714L1500.5509,2048.475L1500.5948,2048.4773L1500.6384,2048.4785L1500.6823,2048.479Q1500.7263,2048.4785,1500.7701,2048.4763Q1500.8573,2048.4722,1500.9443,2048.4602L1500.115,2048.3975L1500.0981,2048.3975 Z"
         id="path8" />
    </g>
  </g>
  <g
     fill="#cdad7d"
     id="g25">
    <g
       id="change2_3">
      <path
         d="M-303.3028,306.9593L-303.3028,349.60614L-303.3028,392.253Q-342.62762,392.25348,-381.95245,392.25403L-381.95245,306.9593L-303.3028,306.95944 M-303.30283,520.1934L-303.30286,562.8403L-303.30286,605.4871L-381.95248,605.4881Q-381.95248,562.84076,-381.95248,520.1934L-303.30283,520.1936 M-303.30286,733.4277L-303.30286,776.0745L-303.30286,818.7214Q-342.6277,818.72186,-381.9525,818.72235Q-381.9525,776.075,-381.9525,733.4277L-303.30286,733.42786 M-303.3029,946.6618L-303.30292,989.3088L-303.30292,1031.9556L-381.95258,1031.9565L-381.95258,989.30927L-381.95255,946.6618L-303.3029,946.662 M-303.30292,1159.896L-303.30292,1202.5428L-303.30292,1245.1897L-381.95264,1245.1907Q-381.95258,1202.5433,-381.9526,1159.896L-303.30292,1159.8961 M-303.30298,1373.1301L-303.30298,1415.777L-303.30298,1458.4238Q-342.6278,1458.4243,-381.95264,1458.4248Q-381.95264,1415.7775,-381.95264,1373.1301L-303.30298,1373.1302 M-303.30298,1586.3646L-303.30298,1629.0114L-303.303,1671.6581L-381.95267,1671.659Q-381.95267,1629.0118,-381.95267,1586.3646L-303.30298,1586.3647 M-303.30304,1799.5986L-303.30304,1842.2455L-303.30304,1884.8923Q-342.62787,1884.8928,-381.9527,1884.8933Q-381.9527,1842.246,-381.9527,1799.5986L-303.30304,1799.5988 M-142.32477,157.77783L-154.09772,164.26143Q-192.17075,182.13641,-244.7214,160.74216L-266.92297,171.14322L-366.10526,201.21783Q-374.44412,205.83719,-391.3018,239.08093L-427.82495,164.87585L-427.8284,1930.5831Q-176.99466,1932.3131,-181.85571,1927.3717Q-175.66994,1935.4329,-133.08264,1850.5527Q-87.30789,1868.169,-59.793213,1918.5999Q-29.005127,1900.475,-22.832855,1891.1871L112.371185,1930.5825L122.24313,1930.5839L184.69913,1901.0385L291.22293,1907.5186Q389.71548,1891.1188,396.89053,1892.6859Q425.04404,1890.407,510.809,1930.5823L580.9857,1930.5817L600.6632,1918.6986Q601.89026,1918.0232,609.99805,1924.9512Q667.672,1910.5847,695.84985,1914.8569L752.124,1875.4738Q777.1708,1877.4398,807.26965,1916.8206L875.3871,1928.1686Q925.10657,1883.6798,958.6398,1878.0022Q983.72107,1870.3513,1086.7412,1886.4379Q1204.3682,1866.675,1211.425,1872.7354Q1266.7258,1836.4562,1280.1526,1839.9019Q1317.3176,1834.8898,1364.3297,1890.0502L1412.3442,1895.5385L1429.7317,1930.581L1450.438,1930.8865Q1442.1836,1928.1882,1434.5251,1851.6951Q1408.22,1803.2484,1404.7354,1766.8652L1412.7129,1726.6075L1468.648,1611.5461Q1468.029,1596.6855,1445.1465,1563.4152Q1465.3141,1553.2096,1472.5405,1530.3606Q1472.1359,1502.1692,1456.6936,1458.59L1455.7223,1384.8589L1476.4784,1365.3767Q1471.5375,1378.0459,1450.1255,1232.3845L1468.6077,1186.3263Q1443.4957,1159.5935,1442.6028,1149.8687Q1439.6384,1139.4618,1477.0374,1065.891L1477.0527,980.79Q1426.5966,831.90137,1422.3384,842.76135Q1428.8107,815.68964,1453.6047,772.0845L1459.6804,604.3108L1428.7467,573.68524Q1428.0717,568.36804,1448.8584,532.30206L1416.9191,467.98788Q1431.1583,440.35648,1427.008,427.0361L1464.5327,372.91937L1418.258,332.453L1445.1628,255.09848L1427.2166,217.69806Q1379.5688,204.43503,1353.9766,192.90378Q1312.8342,195.86417,1217.7493,168.93204Q1129.6937,180.9524,1104.4614,177.52817L1050.513,203.00293L978.64795,208.88818Q970.12756,204.38457,948.10547,170.48889L927.87573,157.77927L-142.32477,157.77783 Z"
         id="path13" />
    </g>
    <g
       id="change2_4">
      <path
         d="M1476.989,1364.8832L1476.7451,1365.1124L1476.5007,1365.3428L1476.5586,1365.3115L1476.616,1365.2753Q1476.6729,1365.2366,1476.7292,1365.188L1476.7852,1365.1368Q1476.8411,1365.0831,1476.8958,1365.0199L1476.9507,1364.954L1477.0046,1364.8832L1476.989,1364.8842"
         id="path16" />
    </g>
    <g
       id="change2_2">
      <path
         d="M1450.439,1930.8867L1450.4849,1930.8965Q1450.5305,1930.9053,1450.5764,1930.9126L1450.6223,1930.919L1450.6682,1930.9241L1450.7139,1930.9282L1450.7598,1930.9312L1450.8057,1930.9329L1450.8516,1930.9333L1450.8916,1930.9329L1450.9316,1930.9316L1450.9717,1930.9294Q1451.0117,1930.9265,1451.052,1930.9224Q1451.1318,1930.9136,1451.2122,1930.898L1450.4543,1930.8867L1450.439,1930.8877 Z"
         id="path19" />
    </g>
    <g
       id="change2_6">
      <path
         d="M-321.1812,224.05493L-321.1812,224.05493L-321.1812,224.05493L-321.1812,224.05493L-321.1812,224.05493L-321.1812,224.05493L-321.1812,224.05493L-321.1812,224.05493L-321.1812,224.05493L-321.1812,224.05493 M-321.18127,518.9227L-321.18127,518.9227L-321.18127,518.9227L-321.18127,518.9227L-321.18127,518.9227L-321.18127,518.9227L-321.18127,518.9227L-321.18127,518.9227L-321.18127,518.9227 Z"
         id="path22" />
    </g>
  </g>
  <path
     style="fill:#ffffff;stroke-width:1.84567"
     d="M 0.09830115,891.91857 0.19660137,11.074002 18.275248,46.947644 36.353894,82.821285 41.526763,73.709816 C 51.561526,56.034633 57.707545,46.931192 60.675167,45.347338 62.325356,44.466614 84.85454,37.36488 110.74002,29.565708 136.6255,21.766536 163.40301,12.842478 170.2456,9.7344694 l 12.44107,-5.6509249 12.47543,4.0982893 c 29.83696,9.8017072 56.0126,9.2683472 79.27025,-1.6152253 l 12.06048,-5.643775 534.57478,0.0472415 534.57479,0.0472417 9.8386,6.2694222 c 7.0879,4.5166081 12.6911,10.4388361 20.0413,21.1824811 11.3399,16.575285 19.7571,24.677093 24.316,23.40508 1.6609,-0.463408 17.5544,-1.875 35.319,-3.136874 l 32.2991,-2.294315 26.7622,-12.377331 26.7622,-12.377329 27.685,-1.101171 c 15.2267,-0.605644 40.7553,-2.739449 56.7301,-4.741791 l 29.0452,-3.64062 31.8618,7.991183 c 39.3349,9.865454 61.4897,13.780625 85.3862,15.089326 15.2487,0.835097 21.8393,2.248148 37.9175,8.12963 10.7034,3.915365 27.4677,9.380581 37.2541,12.144923 l 17.7934,5.026078 8.5292,18.644461 8.5292,18.644462 -13.0227,37.614338 c -7.1626,20.68788 -13.0228,38.20911 -13.0228,38.93607 0,0.72696 9.9627,9.95055 22.1391,20.49688 12.1766,10.54634 22.1432,19.80897 22.148,20.58363 0,0.77469 -7.6307,12.40239 -16.9679,25.83934 -15.6474,22.51793 -17.0879,25.34171 -18.3969,36.06387 -0.7811,6.39816 -3.5856,16.4578 -6.2319,22.35474 l -4.8116,10.72176 15.8749,31.70821 15.8748,31.70819 -10.2915,20.55823 -10.2914,20.55824 15.9674,16.04186 15.9676,16.04187 -3.0675,83.09542 -3.0675,83.09541 -11.6445,22.99373 c -12.9641,25.59923 -20.9786,47.30175 -18.1438,49.13237 4.5271,2.92347 20.0989,41.78079 40.871,101.9873 l 13.133,38.06557 8e-4,40.37528 7e-4,40.37525 -13.7858,28.60784 c -14.8388,30.79305 -21.2833,47.53717 -21.2833,55.29761 0,5.78419 8.0504,19.02276 18.3872,30.23696 l 7.4063,8.0349 -9.2322,22.8301 -9.2322,22.8302 3.7698,24.9756 c 6.5309,43.2713 14.6813,89.1976 17.6641,99.5349 l 2.8741,9.9611 -9.5945,9.7153 -9.5947,9.7153 0.9935,37.5393 c 0.8946,33.7965 1.471,39.0115 5.7812,52.3046 5.4753,16.8871 10.3162,40.6415 10.2907,50.4983 -0.024,9.6039 -9.249,24.6758 -19.359,31.6318 l -8.3461,5.7423 5.4124,7.8669 c 6.6501,9.6656 16.0911,28.1024 17.6837,34.5334 0.9304,3.7575 -4.7164,16.9261 -26.6566,62.164 -26.0253,53.6607 -28.1103,58.7563 -32.0333,78.2876 -3.2086,15.9749 -3.8483,23.2307 -2.718,30.8331 2.0746,13.9538 11.0813,39.9534 20.0579,57.9002 6.8109,13.6169 7.9764,17.9921 11.1119,41.7054 3.3296,25.1811 6.9103,43.4634 9.904,50.564 1.1827,2.8053 0.2458,3.2299 -7.1245,3.2299 h -8.4861 l -9.0948,-18.1235 -9.0948,-18.1235 -23.3237,-2.3619 -23.3238,-2.3619 -15.1242,-15.1484 c -26.2767,-26.3185 -48.1338,-37.3247 -70.751,-35.6269 -13.2119,0.9917 -25.5222,6.2163 -50.499,21.4322 -17.2428,10.5043 -17.7749,10.6854 -32.0564,10.9118 -14.5254,0.2303 -52.53,4.881 -90.618,11.089 -17.7605,2.8948 -22.1692,3.01 -35.9905,0.9407 -51.1267,-7.6549 -96.8326,-10.0385 -114.138,-5.9525 -20.0044,4.7234 -55.1298,25.4756 -75.3979,44.5455 l -5.8296,5.4849 -33.4159,-5.6089 -33.4159,-5.6088 -13.7168,-14.5811 c -14.0137,-14.8966 -31.3697,-26.2884 -40.0158,-26.2648 -2.5304,0.01 -15.7748,8.0263 -31.6033,19.1354 l -27.2475,19.1235 -23.5083,0.9584 c -13.5449,0.5521 -31.9286,2.7224 -43.3755,5.1206 -18.4632,3.8682 -20.1037,3.9482 -23.2161,1.1315 -4.3758,-3.9601 -3.9551,-4.0482 -16.3471,3.4242 l -10.7051,6.4551 -32.86693,0.01 -32.86699,0.01 -22.50302,-9.9289 c -31.01557,-13.6849 -54.90979,-22.3338 -72.18509,-26.1285 -18.3926,-4.0402 -32.371,-3.1405 -86.83885,5.5889 l -40.54622,6.4982 -53.5828,-3.1226 -53.58279,-3.1227 -32.08148,15.1078 c -17.6448,8.3077 -33.03733,15.1062 -34.20558,15.1062 -1.16827,0 -33.24242,-9.0777 -71.27589,-20.1728 l -69.15176,-20.1728 -5.537,5.3004 c -3.04535,2.9152 -11.24253,9.0404 -18.21594,13.6117 l -12.67895,8.3114 -9.19268,-14.0818 c -9.81502,-15.0351 -24.12562,-30.0983 -36.94097,-38.8838 -8.46676,-5.8043 -27.33529,-15.7458 -28.05995,-14.7843 -0.24269,0.3221 -5.25779,9.7216 -11.14467,20.8879 -14.57009,27.6366 -27.64106,49.2691 -32.33858,53.5203 -5.29814,4.7947 -39.88488,6.1715 -159.193227,6.3367 L 0,1772.7631 Z M 125.50536,1685.094 v -43.3732 H 84.900682 44.296008 v 43.3732 43.3731 h 40.604674 40.604678 z m 0,-214.0974 v -43.3732 H 84.900682 44.296008 v 43.3732 43.3732 h 40.604674 40.604678 z m 0,-212.2517 v -43.3732 H 84.900682 44.296008 v 43.3732 43.3732 h 40.604674 40.604678 z m 0,-214.0974 v -43.3732 H 84.900682 44.296008 v 43.3732 43.3732 h 40.604674 40.604678 z m 0,-213.21051 v -44.332 l -40.143262,0.49741 -40.143257,0.49741 -0.494821,43.83459 -0.49482,43.83459 h 40.638077 40.638083 z m 0,-213.13855 V 574.92527 H 84.900682 44.296008 v 43.37317 43.37318 h 40.604674 40.604678 z m 0,-213.17454 v -44.296 H 84.900682 44.296008 v 43.06555 c 0,23.68608 0.5537,43.61928 1.230445,44.29601 0.676743,0.67675 18.948847,1.23045 40.604674,1.23045 h 39.374233 z m 0,-213.17453 V 148.57619 H 84.900682 44.296008 v 43.37318 43.37317 h 40.604674 40.604678 z"
     id="path275"
     transform="translate(-427.8,157.8)" />
</svg>
