<?xml version="1.0" encoding="UTF-8" standalone="no"?>
<svg xmlns="http://www.w3.org/2000/svg" xmlns:xlink="http://www.w3.org/1999/xlink" fill="#000000" height="1895.5" preserveAspectRatio="xMidYMid meet" version="1" viewBox="-427.8 157.8 1940.1 1895.5" width="1940.1" zoomAndPan="magnify"><g opacity="0.157"><g id="change1_1"><path d="M-157.39377,157.77782L-168.61649,164.15356Q-212.83528,181.34747,-254.95557,160.68509L-369.7507,200.23853Q-385.43478,217.23413,-393.46875,237.22574L-427.82523,164.69847L-427.82553,340.13562L-416.9978,299.089L-395.23428,303.7505Q-383.3298,294.2372,-378.32037,294.53543L-378.48602,278.9521L-143.89142,368.44934L-99.608765,507.78973Q-78.42697,628.18744,-78.6712,707.9041Q-79.50751,826.07263,-134.8901,1092.5327Q-127.759,1117.2174,-167.712,1514.4453L-161.32587,1624.9841L-150.27661,1582.0828L-149.54727,1588.8623L-162.94662,1779.0251Q-184.9112,1845.9829,-218.53722,1859.5717L-358.8617,1905.9164Q-378.81918,1909.7491,-388.52325,1896.5526L-414.59222,1899.0461Q-423.452,1894.8771,-423.20776,1868.7769Q-409.75647,1736.6582,-408.97772,1639.2002L-420.21436,1508.8619L-411.74393,1256.3268Q-415.0461,1258.0812,-418.12375,1159.7083L-427.82632,762.4437L-427.82843,1930.4672Q-225.99187,1944.2621,-189.20203,1943.1238Q-184.35239,1951.3083,-141.65036,1865.1316Q-73.10336,1911.2168,-69.25693,1939.8995Q-30.496094,1916.2866,-32.337708,1913.8367L101.62927,1962.7618L111.484436,1963.3645L173.72424,1936.2448L280.95868,1949.4773Q369.95715,1938.9845,391.6341,1940.17Q405.47028,1935.9194,504.67456,1987.3462L576.80237,1991.7446L596.936,1980.3535L606.6357,1987.5851Q666.4356,1975.8794,695.3465,1982.2289L753.1818,1943.7346Q798.16437,1963.3966,811.5025,1991.3485L883.1611,2007.8453Q942.6114,1959.6494,969.0087,1958.2427Q1009.5672,1954.8784,1106.0288,1976.3927Q1243.7087,1961.8419,1239.1953,1969.4707Q1294.8843,1933.5408,1321.354,1937.0979Q1349.8516,1937.9475,1404.9822,1998.0963Q1418.8667,1997.1368,1457.4309,2007.2075L1477.4409,2046.6804L1500.0972,2048.396Q1493.1768,2053.263,1480.3577,1960.7384Q1447.0269,1893.954,1445.3442,1871.3737L1452.936,1823.1072L1510.4773,1701.2737Q1500.085,1667.2799,1483.471,1647.8475Q1493.0161,1651.9635,1512.2996,1613.4598Q1508.5903,1574.0092,1492.9348,1535.059Q1492.1296,1460.2311,1489.7114,1455.4823L1511.6526,1435.4862Q1506.9253,1449.858,1479.187,1291.3635L1497.8435,1242.7144Q1473.8628,1220.3168,1468.396,1199.4158Q1469.7639,1182.3827,1503.4194,1114.1987L1500.9326,1023.4475Q1438.3923,856.89594,1438.7883,872.82825Q1448.6292,837.4642,1469.6086,801.35315L1471.302,624.49603L1436.9758,591.0907Q1434.7454,590.6532,1457.6523,548.65985L1421.7234,480.86578Q1434.8103,456.72296,1431.3374,438.1385L1469.8574,381.89746L1419.3748,339.34167L1445.8501,258.9124L1425.709,219.97292L1347.3975,194.1322Q1304.6045,197.2394,1203.468,169.26439Q1103.4534,182.19032,1085.5095,178.04091L1030.1069,204.10956L955.4693,210.37389L923.7641,170.7486L902.7325,157.77927L-157.39377,157.77782 Z"/></g><g fill="#cdad7d" id="change2_1"><path d="M1512.2137,1434.9178L1511.9557,1435.1538L1511.6969,1435.3911L1511.7588,1435.3601L1511.8201,1435.3235Q1511.8807,1435.2844,1511.9408,1435.2346L1511.9999,1435.1821Q1512.059,1435.1267,1512.1165,1435.0609L1512.1742,1434.9924L1512.2307,1434.9186L1512.2139,1434.9191"/></g><g fill="#cdad7d" id="change2_5"><path d="M1500.0981,2048.3965L1500.1486,2048.4102Q1500.1989,2048.423,1500.249,2048.4338L1500.2994,2048.4438L1500.3502,2048.4526L1500.4001,2048.4602L1500.4504,2048.4663L1500.5006,2048.4714L1500.5509,2048.475L1500.5948,2048.4773L1500.6384,2048.4785L1500.6823,2048.479Q1500.7263,2048.4785,1500.7701,2048.4763Q1500.8573,2048.4722,1500.9443,2048.4602L1500.115,2048.3975L1500.0981,2048.3975 Z"/></g></g><g fill="#cdad7d"><g id="change2_3"><path d="M-303.3028,306.9593L-303.3028,349.60614L-303.3028,392.253Q-342.62762,392.25348,-381.95245,392.25403L-381.95245,306.9593L-303.3028,306.95944 M-303.30283,520.1934L-303.30286,562.8403L-303.30286,605.4871L-381.95248,605.4881Q-381.95248,562.84076,-381.95248,520.1934L-303.30283,520.1936 M-303.30286,733.4277L-303.30286,776.0745L-303.30286,818.7214Q-342.6277,818.72186,-381.9525,818.72235Q-381.9525,776.075,-381.9525,733.4277L-303.30286,733.42786 M-303.3029,946.6618L-303.30292,989.3088L-303.30292,1031.9556L-381.95258,1031.9565L-381.95258,989.30927L-381.95255,946.6618L-303.3029,946.662 M-303.30292,1159.896L-303.30292,1202.5428L-303.30292,1245.1897L-381.95264,1245.1907Q-381.95258,1202.5433,-381.9526,1159.896L-303.30292,1159.8961 M-303.30298,1373.1301L-303.30298,1415.777L-303.30298,1458.4238Q-342.6278,1458.4243,-381.95264,1458.4248Q-381.95264,1415.7775,-381.95264,1373.1301L-303.30298,1373.1302 M-303.30298,1586.3646L-303.30298,1629.0114L-303.303,1671.6581L-381.95267,1671.659Q-381.95267,1629.0118,-381.95267,1586.3646L-303.30298,1586.3647 M-303.30304,1799.5986L-303.30304,1842.2455L-303.30304,1884.8923Q-342.62787,1884.8928,-381.9527,1884.8933Q-381.9527,1842.246,-381.9527,1799.5986L-303.30304,1799.5988 M-142.32477,157.77783L-154.09772,164.26143Q-192.17075,182.13641,-244.7214,160.74216L-266.92297,171.14322L-366.10526,201.21783Q-374.44412,205.83719,-391.3018,239.08093L-427.82495,164.87585L-427.8284,1930.5831Q-176.99466,1932.3131,-181.85571,1927.3717Q-175.66994,1935.4329,-133.08264,1850.5527Q-87.30789,1868.169,-59.793213,1918.5999Q-29.005127,1900.475,-22.832855,1891.1871L112.371185,1930.5825L122.24313,1930.5839L184.69913,1901.0385L291.22293,1907.5186Q389.71548,1891.1188,396.89053,1892.6859Q425.04404,1890.407,510.809,1930.5823L580.9857,1930.5817L600.6632,1918.6986Q601.89026,1918.0232,609.99805,1924.9512Q667.672,1910.5847,695.84985,1914.8569L752.124,1875.4738Q777.1708,1877.4398,807.26965,1916.8206L875.3871,1928.1686Q925.10657,1883.6798,958.6398,1878.0022Q983.72107,1870.3513,1086.7412,1886.4379Q1204.3682,1866.675,1211.425,1872.7354Q1266.7258,1836.4562,1280.1526,1839.9019Q1317.3176,1834.8898,1364.3297,1890.0502L1412.3442,1895.5385L1429.7317,1930.581L1450.438,1930.8865Q1442.1836,1928.1882,1434.5251,1851.6951Q1408.22,1803.2484,1404.7354,1766.8652L1412.7129,1726.6075L1468.648,1611.5461Q1468.029,1596.6855,1445.1465,1563.4152Q1465.3141,1553.2096,1472.5405,1530.3606Q1472.1359,1502.1692,1456.6936,1458.59L1455.7223,1384.8589L1476.4784,1365.3767Q1471.5375,1378.0459,1450.1255,1232.3845L1468.6077,1186.3263Q1443.4957,1159.5935,1442.6028,1149.8687Q1439.6384,1139.4618,1477.0374,1065.891L1477.0527,980.79Q1426.5966,831.90137,1422.3384,842.76135Q1428.8107,815.68964,1453.6047,772.0845L1459.6804,604.3108L1428.7467,573.68524Q1428.0717,568.36804,1448.8584,532.30206L1416.9191,467.98788Q1431.1583,440.35648,1427.008,427.0361L1464.5327,372.91937L1418.258,332.453L1445.1628,255.09848L1427.2166,217.69806Q1379.5688,204.43503,1353.9766,192.90378Q1312.8342,195.86417,1217.7493,168.93204Q1129.6937,180.9524,1104.4614,177.52817L1050.513,203.00293L978.64795,208.88818Q970.12756,204.38457,948.10547,170.48889L927.87573,157.77927L-142.32477,157.77783 Z"/></g><g id="change2_4"><path d="M1476.989,1364.8832L1476.7451,1365.1124L1476.5007,1365.3428L1476.5586,1365.3115L1476.616,1365.2753Q1476.6729,1365.2366,1476.7292,1365.188L1476.7852,1365.1368Q1476.8411,1365.0831,1476.8958,1365.0199L1476.9507,1364.954L1477.0046,1364.8832L1476.989,1364.8842"/></g><g id="change2_2"><path d="M1450.439,1930.8867L1450.4849,1930.8965Q1450.5305,1930.9053,1450.5764,1930.9126L1450.6223,1930.919L1450.6682,1930.9241L1450.7139,1930.9282L1450.7598,1930.9312L1450.8057,1930.9329L1450.8516,1930.9333L1450.8916,1930.9329L1450.9316,1930.9316L1450.9717,1930.9294Q1451.0117,1930.9265,1451.052,1930.9224Q1451.1318,1930.9136,1451.2122,1930.898L1450.4543,1930.8867L1450.439,1930.8877 Z"/></g><g id="change2_6"><path d="M-321.1812,224.05493L-321.1812,224.05493L-321.1812,224.05493L-321.1812,224.05493L-321.1812,224.05493L-321.1812,224.05493L-321.1812,224.05493L-321.1812,224.05493L-321.1812,224.05493L-321.1812,224.05493 M-321.18127,518.9227L-321.18127,518.9227L-321.18127,518.9227L-321.18127,518.9227L-321.18127,518.9227L-321.18127,518.9227L-321.18127,518.9227L-321.18127,518.9227L-321.18127,518.9227 Z"/></g></g></svg>