<?xml version="1.0" encoding="UTF-8" standalone="no"?>
<svg xmlns="http://www.w3.org/2000/svg" xmlns:xlink="http://www.w3.org/1999/xlink" data-name="Layer 1" fill="#000000" height="386.1" preserveAspectRatio="xMidYMid meet" version="1" viewBox="-0.0 0.0 386.2 386.1" width="386.2" zoomAndPan="magnify"><g id="change1_1"><path d="M92.74,56.93H429.39A13.71,13.71,0,0,1,443.1,70.64V429.36a13.71,13.71,0,0,1-13.71,13.71H70.61A13.71,13.71,0,0,1,56.9,429.35V92.76A35.84,35.84,0,0,1,92.74,56.93Z" fill="#5d4630" transform="translate(-56.9 -56.93)"/></g><g id="change2_1"><path d="M335.14,164.88A119.73,119.73,0,0,0,143.31,303.37l-12.69,61.68a3.83,3.83,0,0,0-.11.94,4.51,4.51,0,0,0,.83,2.63,4.62,4.62,0,0,0,3.82,2.05,4.77,4.77,0,0,0,1.08-.14l60.46-14.31A119.71,119.71,0,0,0,335.14,164.88ZM316.29,315.29a93.85,93.85,0,0,1-108,17.55l-8.41-4.19-37.06,8.78.11-.45,7.67-37.28-4.13-8.16A93.74,93.74,0,0,1,316.29,182.75a4.43,4.43,0,0,0,.49.48,93.71,93.71,0,0,1-.49,132.06Z" fill="#ffffff" transform="translate(-56.9 -56.93)"/></g><g id="change2_2"><path d="M313,287.92c-4.53,7.16-11.72,15.91-20.73,18.07-15.79,3.82-40,.15-70.21-28l-.37-.31c-26.54-24.6-33.41-45.06-31.76-61.31.91-9.21,8.61-17.53,15.08-23a8.59,8.59,0,0,1,13.48,3.08l9.78,21.94a8.5,8.5,0,0,1,.74,3.48,8.63,8.63,0,0,1-1.82,5.3l-4.93,6.39a8.42,8.42,0,0,0-1.88,5.33,8.6,8.6,0,0,0,1.11,4.16c2.76,4.84,9.38,12,16.73,18.58,8.27,7.47,17.39,14.28,23.21,16.62a8.53,8.53,0,0,0,3.16.6,8.34,8.34,0,0,0,6-2.54l5.73-5.79a8.87,8.87,0,0,1,6.15-2.5,9.51,9.51,0,0,1,2.4.31l23.2,6.58a8.79,8.79,0,0,1,6.19,8.41,8.63,8.63,0,0,1-1.28,4.56Z" fill="#ffffff" transform="translate(-56.9 -56.93)"/></g></svg>